<svg width="18" height="12" viewBox="0 0 18 12" fill="none" xmlns="http://www.w3.org/2000/svg">
<path d="M11.6582 0.209705L11.7524 0.292893L16.7524 5.29289C16.7803 5.32078 16.8066 5.3503 16.831 5.38131L16.7524 5.29289C16.7878 5.32829 16.82 5.36567 16.849 5.40469L16.9207 5.51594L16.9701 5.61874L17.0073 5.72604L17.0301 5.82535L17.0436 5.94064L17.0425 6.07524L17.03 6.17471L17.0032 6.288L16.9701 6.38118L16.9371 6.45303L16.8896 6.53609L16.8256 6.62545L16.7524 6.70711L11.7524 11.7071C11.3619 12.0976 10.7287 12.0976 10.3382 11.7071C9.97773 11.3466 9.95001 10.7794 10.255 10.3871L10.3382 10.2929L13.63 7H1.07715C0.524864 7 0.0771484 6.55228 0.0771484 6C0.0771484 5.48716 0.463189 5.06449 0.960527 5.00673L1.07715 5H13.631L10.3382 1.70711C9.94769 1.31658 9.94769 0.683418 10.3382 0.292893C10.6687 -0.0375504 11.1728 -0.0883879 11.5567 0.140381L11.6582 0.209705Z" fill="#479CF5"/>
</svg>
