<svg width="30" height="30" viewBox="0 0 30 30" fill="none" xmlns="http://www.w3.org/2000/svg">
<rect width="30" height="30" fill="#D8D8D8" fill-opacity="0.01"/>
<path d="M7.17001 9.77996H22.83" stroke="#415160" stroke-width="2" stroke-linecap="round" stroke-linejoin="round"/>
<path d="M22.09 9.78005C22.09 9.22776 21.6423 8.78005 21.09 8.78005C20.5377 8.78005 20.09 9.22776 20.09 9.78005H22.09ZM19.35 22.7C18.7977 22.7 18.35 23.1478 18.35 23.7C18.35 24.2523 18.7977 24.7 19.35 24.7V22.7ZM9.91 9.78005C9.91 9.22776 9.46229 8.78005 8.91 8.78005C8.35772 8.78005 7.91 9.22776 7.91 9.78005H9.91ZM10.52 9.78005C10.52 10.3323 10.9677 10.78 11.52 10.78C12.0723 10.78 12.52 10.3323 12.52 9.78005H10.52ZM17.48 9.78005C17.48 10.3323 17.9277 10.78 18.48 10.78C19.0323 10.78 19.48 10.3323 19.48 9.78005H17.48ZM20.09 9.78005V21.96H22.09V9.78005H20.09ZM20.09 21.96C20.09 22.3686 19.7585 22.7 19.35 22.7V24.7C20.8631 24.7 22.09 23.4732 22.09 21.96H20.09ZM19.35 22.7H10.65V24.7H19.35V22.7ZM10.65 22.7C10.2415 22.7 9.91 22.3686 9.91 21.96H7.91C7.91 23.4732 9.13689 24.7 10.65 24.7V22.7ZM9.91 21.96V9.78005H7.91V21.96H9.91ZM12.52 9.78005V8.04005H10.52V9.78005H12.52ZM12.52 8.04005C12.52 7.63151 12.8515 7.30005 13.26 7.30005V5.30005C11.7469 5.30005 10.52 6.52694 10.52 8.04005H12.52ZM13.26 7.30005H16.74V5.30005H13.26V7.30005ZM16.74 7.30005C17.1485 7.30005 17.48 7.63151 17.48 8.04005H19.48C19.48 6.52694 18.2531 5.30005 16.74 5.30005V7.30005ZM17.48 8.04005V9.78005H19.48V8.04005H17.48Z" fill="#415160"/>
<path d="M13.26 14.1301V19.3501" stroke="#415160" stroke-width="2" stroke-linecap="round" stroke-linejoin="round"/>
<path d="M16.74 14.1301V19.3501" stroke="#415160" stroke-width="2" stroke-linecap="round" stroke-linejoin="round"/>
</svg>
