<svg width="80" height="23" viewBox="0 0 80 23" fill="none" xmlns="http://www.w3.org/2000/svg">
<path fill-rule="evenodd" clip-rule="evenodd" d="M13.1274 2.69002C13.6407 3.01484 14.0543 3.4474 14.3157 3.97186C14.6041 4.49474 14.7324 5.15071 14.734 5.93185C14.734 7.71597 14.0004 9.15626 12.5126 10.2464C11.0327 11.3349 8.97287 11.8784 6.31254 11.8815H5.68984C5.21291 11.8815 4.74708 12.2571 4.64726 12.7071L3.90097 15.9394C3.7964 16.4005 3.32898 16.7665 2.8568 16.7665H0.681323C0.20915 16.7665 -0.0871463 16.3894 0.0237667 15.9394L3.08021 2.62665C3.19113 2.17032 3.65379 1.80272 4.12597 1.79638L8.66865 1.79321C9.6526 1.80272 10.5019 1.86293 11.2371 1.99603C11.9596 2.13229 12.5918 2.36204 13.1274 2.69002ZM6.87344 9.04376C8.05229 9.04376 8.96653 8.80292 9.62408 8.32124C10.2785 7.83956 10.616 7.15982 10.6033 6.27568C10.6065 5.69418 10.3957 5.25528 9.97584 4.97959C9.5512 4.70072 8.91582 4.55653 8.08398 4.55653L7.37096 4.56129C6.90354 4.55812 6.42662 4.93364 6.33472 5.3868L5.68033 8.21349C5.57734 8.66982 5.8673 9.04376 6.34106 9.04376H6.87344Z" fill="black"/>
<path d="M76.3319 2.8358L76.1956 2.877L76.0134 2.90235L75.79 2.86749L75.6759 2.75658L75.6236 2.58228L75.6205 2.32085V1.35273H76.3477V1.05327H75.6205V0.449585H75.2608V1.05327H75.0168V1.35273H75.2608V2.47929L75.4287 3.03703L75.9231 3.21449L76.1307 3.19706L76.3509 3.15428V2.8358H76.3319Z" fill="black"/>
<path d="M79.7053 1.20695L79.1856 0.993042L78.8022 1.07068L78.4124 1.3337L78.1858 1.08177L77.8182 0.994626L77.4649 1.07227L77.1306 1.28775V1.05325H76.7772V3.16852H77.129V1.5888L77.4253 1.405L77.72 1.33212L77.9608 1.3749L78.0797 1.4969L78.1319 1.69972L78.1494 1.96115V3.17011H78.5027V1.81697L78.4964 1.70447L78.49 1.60148L78.7911 1.40976L79.089 1.33529L79.3219 1.37807L79.4486 1.50007L79.493 1.70447L79.5168 1.96274V3.17169H79.8717V1.79795L79.7053 1.20695Z" fill="black"/>
<path fill-rule="evenodd" clip-rule="evenodd" d="M20.9182 5.18079C22.6896 5.18079 23.9857 5.41212 24.8065 5.87478C25.6288 6.33587 26.0487 7.0568 26.0424 8.02967L26.0043 8.55413L25.9219 9.11345L24.3359 15.979C24.2408 16.3941 23.8336 16.7427 23.3995 16.7934L23.3709 16.8061H23.0572H21.3888H21.3507L21.3428 16.7966C20.9293 16.7554 20.6726 16.4068 20.7613 15.9821V15.979L20.7661 15.9647L20.8485 15.6161L20.8374 15.6003L20.0166 16.1422L19.1246 16.6365L18.0709 16.9994C17.7476 17.077 17.2929 17.123 16.7051 17.1261C15.7766 17.1261 15.0002 16.8694 14.4123 16.3434C13.8277 15.8078 13.5266 15.1154 13.5266 14.2772C13.5266 13.3868 13.7342 12.6278 14.1493 12.0019C14.5787 11.3792 15.1935 10.8896 16.0222 10.5252C16.7938 10.1719 17.7223 9.9136 18.7807 9.76625C19.8629 9.60939 20.755 9.4953 21.9893 9.41766L22.303 9.22436L22.341 8.91697C22.341 8.4448 22.1224 8.1184 21.6851 7.92826C21.2414 7.74129 20.5759 7.64939 19.7061 7.64939C19.1166 7.64147 18.3735 7.76189 17.6684 7.92192C17.1565 8.03618 16.9027 8.12454 16.6749 8.20389C16.5741 8.23899 16.4783 8.27233 16.3676 8.30537C16.1996 8.36399 15.7972 8.39093 15.9477 7.69217L16.2139 6.5973C16.2139 6.5973 16.3438 5.77179 17.1709 5.59116C17.2139 5.58181 17.253 5.57325 17.2894 5.56528C17.5921 5.49901 17.705 5.47429 18.2864 5.38518C19.1689 5.24892 20.042 5.18079 20.9182 5.18079ZM20.9594 14.0412L21.2984 13.5943C21.4315 13.0683 21.7104 11.9021 21.7405 11.7516L21.59 11.487C21.4616 11.4902 20.4793 11.6027 19.9818 11.6644C19.424 11.7421 18.9423 11.8546 18.5478 11.9877L17.6256 12.6151C17.4086 12.8845 17.3072 13.2347 17.3072 13.6767L17.727 14.4927C18.0107 14.6512 18.4306 14.7288 18.9661 14.7288C19.3194 14.7288 19.7013 14.6464 20.1038 14.4832L20.9594 14.0412Z" fill="black"/>
<path fill-rule="evenodd" clip-rule="evenodd" d="M60.4334 5.18872C62.2 5.18872 63.4945 5.42164 64.32 5.8843C65.1487 6.34539 65.5638 7.06315 65.5623 8.03285L65.5163 8.55889L65.4323 9.12138L63.8415 15.9774C63.7512 16.3973 63.3456 16.7459 62.9162 16.7981L62.8829 16.8092H62.5755H60.9024H60.8643L60.8612 16.8013C60.4429 16.7633 60.1846 16.4115 60.2828 15.9869L60.2797 15.9806L60.2876 15.9742L60.3621 15.6225L60.3478 15.605L59.5334 16.1533L58.6334 16.6476L57.5829 17.0057C57.2581 17.0897 56.8034 17.1277 56.2187 17.1341C55.2902 17.1341 54.5218 16.871 53.9307 16.3466C53.3382 15.8142 53.0403 15.1218 53.0403 14.2773C53.0403 13.3947 53.2447 12.6373 53.6646 12.0115C54.0892 11.3872 54.7119 10.8976 55.5374 10.5316C56.3106 10.1766 57.2423 9.91995 58.2975 9.7726C59.3686 9.61574 60.2622 9.50165 61.5092 9.42718L61.8198 9.22912L61.853 8.92332C61.853 8.4559 61.6376 8.12633 61.1971 7.9362C60.755 7.74923 60.0895 7.65574 59.2228 7.65574C58.6318 7.65257 57.8824 7.76983 57.1805 7.92827C56.6815 8.04491 56.4321 8.13136 56.209 8.20871C56.1048 8.24485 56.0063 8.27899 55.8907 8.3133C55.7069 8.36717 55.314 8.39886 55.4629 7.70011L55.7291 6.60682C55.7291 6.60682 55.8574 5.77814 56.683 5.5991C56.7343 5.58817 56.7802 5.57831 56.8225 5.56921C57.1116 5.50706 57.2337 5.4808 57.8032 5.39787C58.6825 5.25685 59.5572 5.18872 60.4334 5.18872ZM60.4667 14.0554L60.82 13.6039C60.95 13.0746 61.2304 11.9132 61.2526 11.7627L61.0989 11.4981C60.9722 11.4997 59.9929 11.6153 59.4986 11.6771C58.9377 11.7579 58.456 11.8657 58.0662 11.9988C57.6669 12.1541 57.3453 12.3664 57.1346 12.6246C56.927 12.8988 56.824 13.2458 56.824 13.6894L57.2486 14.5022C57.5243 14.6607 57.9331 14.7399 58.4861 14.7399C58.8331 14.7399 59.2166 14.6559 59.619 14.4943L60.4667 14.0554Z" fill="black"/>
<path fill-rule="evenodd" clip-rule="evenodd" d="M52.6251 2.73434C53.1417 3.06708 53.5505 3.4933 53.823 4.02093C54.0987 4.53905 54.2334 5.19661 54.2413 5.97459C54.2413 7.76029 53.4982 9.1974 52.0294 10.2954C50.5431 11.3808 48.4786 11.929 45.8151 11.929H45.1924C44.7218 11.9259 44.2544 12.3046 44.1466 12.7545L43.4098 15.9885C43.3005 16.4448 42.8268 16.8155 42.3641 16.8124L40.1854 16.8155C39.7228 16.8155 39.4186 16.4416 39.5295 15.99L42.5891 2.67096C42.6984 2.21939 43.1532 1.85179 43.6269 1.84387L48.1759 1.8407C49.1536 1.84228 50.0139 1.912 50.7349 2.04034C51.4685 2.17344 52.0959 2.40477 52.6251 2.73434ZM46.3871 9.08966C47.5596 9.08966 48.4754 8.84882 49.1314 8.37665C49.7842 7.8918 50.1122 7.21047 50.1074 6.32634C50.1027 5.74642 49.9014 5.30911 49.4752 5.03024C49.0474 4.75137 48.4199 4.61352 47.5833 4.60877L46.8783 4.61352C46.4077 4.60877 45.9355 4.98746 45.8388 5.43903L45.1797 8.26098C45.0751 8.71414 45.3778 9.09441 45.8452 9.08966H46.3871Z" fill="black"/>
<path d="M72.477 2.77714C72.5768 2.3224 72.2916 1.95322 71.8242 1.95955H69.8753C69.476 1.95955 69.1163 2.25585 68.9405 2.62028L68.8327 2.78823L68.7345 3.21921L66.0108 15.6003L65.922 15.9805L65.9252 15.9901C65.8349 16.3973 66.0852 16.7047 66.4718 16.7633L66.5051 16.8092H68.5285C68.9246 16.8092 69.297 16.5082 69.4665 16.1374L69.5711 15.979L72.4833 2.77873L72.477 2.77714Z" fill="black"/>
<path d="M39.5897 5.34723C39.0747 5.35356 36.9816 5.34723 36.9816 5.34723C36.5126 5.34723 35.9105 5.72591 35.6126 6.17749C35.6126 6.17749 32.4976 11.5235 32.1949 12.0606L31.8337 12.0559L30.864 6.21393C30.7562 5.75444 30.2761 5.36149 29.6788 5.36149L27.7299 5.36466C27.2609 5.36466 26.9725 5.73859 27.0787 6.19492C27.0787 6.19492 28.5586 14.6164 28.8549 16.5986C28.9927 17.6918 28.8374 17.8867 28.8374 17.8867L26.9107 21.2427C26.6255 21.699 26.7792 22.0713 27.2466 22.0713L29.4997 22.0682C29.9687 22.0682 30.5851 21.699 30.864 21.2411L39.531 6.58153C39.531 6.58311 40.3645 5.3298 39.5897 5.34723Z" fill="black"/>
</svg>
