<svg width="80" height="30" viewBox="0 0 80 30" fill="none" xmlns="http://www.w3.org/2000/svg">
<path fill-rule="evenodd" clip-rule="evenodd" d="M27.7297 29.6293C24.7297 26.9806 22.027 26.1158 19.5405 26.1158C18.0097 26.1158 16.7486 26.2302 15.6133 26.3332C14.6842 26.4175 13.8394 26.4941 13 26.4941C5.81081 26.4941 0 20.6563 0 13.4941C0 6.33198 5.81081 0.521168 12.973 0.494141C20.1622 0.494141 25.973 6.33198 25.973 13.4941C25.973 15.9536 25.2973 18.2239 24.1351 20.1698C24.1081 20.2509 24 20.2239 24 20.1428C23.5405 16.9536 21.5946 15.1968 18.7568 14.6833C18.5135 14.6563 18.4595 14.4941 18.7838 14.4671C19.6486 14.386 20.8919 14.4131 21.5135 14.5212C21.5405 14.1968 21.5676 13.8455 21.5676 13.5212C21.5676 8.76441 17.7027 4.92657 12.973 4.92657C8.24324 4.92657 4.40541 8.73738 4.40541 13.4941C4.40541 18.2509 8.27027 22.0887 13 22.0887H13.4054C13.2703 21.2509 13.2162 20.4131 13.2432 19.7644C13.2432 19.2509 13.3514 19.1698 13.5946 19.5752C14.7838 21.6293 16.4865 23.4941 19.8108 24.2239C22.5135 24.8185 25.2162 25.5212 28.1622 29.2239C28.4324 29.5752 28.027 29.8995 27.7297 29.6293ZM47.7297 20.6833C47.973 20.6833 48.1081 20.4131 47.9459 20.2239L45.6757 17.5752C46.4324 16.386 46.8649 14.9806 46.8649 13.4941C46.8649 9.33198 43.4865 5.9536 39.3243 5.9536C35.1622 5.9536 31.7838 9.33198 31.7838 13.4941C31.7838 17.6563 35.1622 21.0347 39.3243 21.0347C40.8108 21.0347 42.2162 20.5752 43.4054 19.8185L43.973 20.5212C44.0541 20.6293 44.1892 20.6833 44.3243 20.6833H47.7297ZM53.0811 20.332V6.68333C53.0811 6.46711 52.9189 6.30495 52.7027 6.30495H49.9189C49.7027 6.30495 49.5405 6.46711 49.5405 6.68333V20.332C49.5405 20.5482 49.7027 20.7104 49.9189 20.7104H52.7027C52.9189 20.7104 53.0811 20.5482 53.0811 20.332ZM71.7297 6.30495H74.8378C74.9459 6.30495 75.0541 6.35901 75.1622 6.46711C75.2432 6.54819 75.2432 6.68333 75.2162 6.79144L70.6216 20.4671C70.5676 20.6022 70.4324 20.7104 70.2703 20.7104H67.7838C67.6216 20.7104 67.4865 20.6293 67.4324 20.4671L64.7568 12.4941L62.0811 20.4671C62.027 20.6022 61.8919 20.7104 61.7297 20.7104H59.2432C59.0811 20.7104 58.9459 20.6293 58.8919 20.4671L54.2973 6.79144C54.2703 6.68333 54.2703 6.57522 54.3513 6.46711C54.4054 6.35901 54.5405 6.30495 54.6486 6.30495H57.7568C57.9189 6.30495 58.0541 6.41306 58.1081 6.57522L60.6216 14.6563L63.3243 6.57522C63.3784 6.44009 63.5135 6.33198 63.6757 6.33198H65.8649C66.027 6.33198 66.1622 6.41306 66.2162 6.57522L68.9189 14.6563L71.3784 6.57522C71.4324 6.41306 71.5676 6.30495 71.7297 6.30495ZM79.5135 6.30495H76.7297C76.5135 6.30495 76.3513 6.46711 76.3513 6.68333V20.332C76.3513 20.5482 76.5135 20.7104 76.7297 20.7104H79.5135C79.7297 20.7104 79.8919 20.5482 79.8919 20.332V6.68333C79.8919 6.46711 79.7297 6.30495 79.5135 6.30495ZM41.1622 17.1968L39.6757 15.386C39.5135 15.1968 39.6487 14.8995 39.8919 14.8995H43.027C43.1892 14.4671 43.2703 13.9806 43.2703 13.4941C43.2703 11.2509 41.5946 9.30495 39.2973 9.30495C37 9.30495 35.3243 11.2509 35.3243 13.4941C35.3243 15.7374 37 17.6563 39.2973 17.6563C39.973 17.6833 40.6216 17.4941 41.1622 17.1968ZM22.8919 20.9806C23.0541 20.9806 23.2432 20.7374 23.1622 20.1698C23.1081 19.8185 22.9189 19.0887 22.4595 18.9266C22.2162 18.8455 22 18.9266 21.9189 19.0887C21.7568 19.332 21.8649 19.8455 22.1622 20.305C22.4595 20.7374 22.7027 20.9806 22.8919 20.9806ZM20.5135 21.4131C21.0811 21.8995 21.2703 22.4941 20.973 22.8995C20.8108 23.1158 20.5405 23.2509 20.1892 23.2509C19.8649 23.2509 19.5405 23.1428 19.2973 22.9266C18.7838 22.4671 18.6216 21.7104 18.973 21.305C19.1081 21.1428 19.3243 21.0617 19.5946 21.0617C19.8919 21.0347 20.2162 21.1698 20.5135 21.4131Z" fill="black"/>
</svg>
