<svg width="80" height="29" viewBox="0 0 80 29" fill="none" xmlns="http://www.w3.org/2000/svg">
<path fill-rule="evenodd" clip-rule="evenodd" d="M77.9362 14.4645C78.6748 14.4726 79.1855 14.8362 79.2905 15.4423C79.3196 15.6136 79.3229 15.7914 79.318 15.9611C79.3212 18.6811 79.3212 21.393 79.3164 24.1081C79.3164 24.132 79.3165 24.156 79.3165 24.1799C79.3177 24.6682 79.3188 25.1533 78.8396 25.5384C78.4518 25.8584 77.975 25.9651 77.4578 25.9651C75.6701 25.97 73.8869 25.9693 72.1015 25.9687C71.5061 25.9685 70.9105 25.9683 70.3144 25.9683C69.7167 25.9683 69.1185 25.9685 68.5203 25.9687C66.7243 25.9693 64.9268 25.97 63.1338 25.9651C61.9346 25.9651 61.0667 25.4221 60.7322 24.475C60.6885 24.3425 60.674 24.2003 60.674 24.0613C60.6728 23.0354 60.6731 22.0097 60.6735 20.9839C60.6741 19.2254 60.6747 17.4665 60.6675 15.7057C60.6627 14.7231 61.2202 14.033 62.2206 13.5562C65.621 11.9384 69.0166 10.3207 72.4138 8.69965C72.9697 8.4346 73.5322 8.25197 74.1722 8.48147C74.7281 8.68349 74.9705 9.07298 74.9705 9.54005C74.9725 9.98312 74.9748 10.4261 74.977 10.8691C74.9899 13.3763 75.0027 15.8816 74.956 18.3869C74.9382 19.2968 74.3548 20.0176 73.2736 20.3829C71.8265 20.8678 70.3765 21.3475 68.9264 21.8272C67.9747 22.142 67.023 22.4568 66.072 22.7732C65.9221 22.8229 65.772 22.8722 65.6219 22.9215C65.1716 23.0693 64.7213 23.2172 64.2764 23.376C64.0841 23.4423 63.8966 23.5376 63.7495 23.6572C63.638 23.7558 63.4958 23.9481 63.541 24.0273C63.6105 24.1469 63.8336 24.2698 63.9952 24.2698C64.3653 24.273 64.7483 24.2326 65.112 24.1534C67.1015 23.7211 69.0887 23.2821 71.0756 22.8431C72.32 22.5682 73.5642 22.2933 74.8089 22.0201C75.8497 21.7889 76.716 20.8774 76.7208 19.9902C76.7273 18.298 76.7338 16.6027 76.7128 14.9057C76.7095 14.5599 76.8243 14.4144 77.2606 14.4597C77.4031 14.4752 77.5476 14.4714 77.6932 14.4676C77.7739 14.4655 77.8549 14.4633 77.9362 14.4645ZM70.9188 13.4544C70.1172 13.5546 69.592 13.9457 69.3511 14.5712C69.0877 15.2516 69.5111 15.7833 70.2707 15.7833C71.1806 15.7865 72.1019 14.93 71.9871 14.193C71.9111 13.7146 71.4489 13.3865 70.9188 13.4544Z" fill="black"/>
<path d="M12.3022 3.79458C12.3022 4.65438 12.3022 5.4964 12.3022 6.3465C11.6508 6.3465 11.0448 6.3465 10.3919 6.3465C10.3919 5.47862 10.3919 4.6366 10.3919 3.7865C10.0379 3.7865 9.73084 3.7865 9.39307 3.7865C9.39307 5.91498 9.39307 8.0063 9.39307 10.1025C9.74216 10.1025 10.0573 10.1025 10.4226 10.1025C10.4226 9.14569 10.4226 8.21478 10.4226 7.27418C11.069 7.27418 11.667 7.27418 12.3086 7.27418C12.3086 8.22771 12.3086 9.16024 12.3086 10.1057C12.6723 10.1057 12.9874 10.1057 13.3252 10.1057C13.3252 7.99175 13.3252 5.89721 13.3252 3.79458C12.9793 3.79458 12.6642 3.79458 12.3022 3.79458Z" fill="black"/>
<path fill-rule="evenodd" clip-rule="evenodd" d="M34.4469 18.6164C36.2683 18.7668 37.4093 19.6783 37.7099 21.1797C37.8715 21.9942 37.865 22.8055 37.5224 23.5845C36.9341 24.9276 35.6784 25.5821 34.0315 25.7049C33.2717 25.763 32.5049 25.7493 31.7231 25.7353C31.3742 25.729 31.0223 25.7227 30.6667 25.7227V14.61H32.2247V18.6068C32.4689 18.6068 32.7088 18.6022 32.9453 18.5978C33.4585 18.5882 33.9557 18.5788 34.4469 18.6164ZM32.2377 24.3118C33.7536 24.6706 35.011 24.092 35.3003 22.8637C35.4069 22.408 35.4037 21.9086 35.31 21.4544C35.0465 20.189 34.0332 19.6847 32.5173 20.0063C32.4057 20.0274 32.2506 20.1728 32.2506 20.2617C32.2351 21.3367 32.2361 22.4097 32.2371 23.4938C32.2374 23.7657 32.2377 24.0383 32.2377 24.3118Z" fill="black"/>
<path fill-rule="evenodd" clip-rule="evenodd" d="M6.40685 0.389674C6.59019 0.389494 6.77372 0.389314 6.9576 0.389314L6.96362 0.38933C7.55559 0.390925 7.5572 0.390929 7.5572 0.869314V9.53194V10.0814H6.40003V6.53396C5.71801 6.40305 5.68245 6.41598 5.39316 6.86204C5.21333 7.14105 5.03231 7.41953 4.85131 7.69797C4.40115 8.39047 3.95113 9.08276 3.52003 9.78245C3.36164 10.0362 3.18548 10.1477 2.84285 10.117C2.66774 10.1017 2.48966 10.1049 2.28603 10.1085C2.18897 10.1103 2.0861 10.1121 1.97498 10.1121L2.12662 9.88366C2.91696 8.69284 3.67534 7.55018 4.43801 6.40467C2.02346 5.75335 1.54669 2.70204 3.36164 1.09558C3.89013 0.628506 4.53336 0.386082 5.30912 0.389314C5.67527 0.390391 6.0407 0.390033 6.40685 0.389674ZM5.87755 5.52813C6.04088 5.52114 6.20502 5.51411 6.3677 5.51578V1.30245C4.79841 1.10689 4.12447 1.43335 3.61376 2.6083C3.60525 2.62833 3.59612 2.64836 3.58694 2.66848C3.5665 2.71331 3.54584 2.75862 3.53134 2.80548C3.2776 3.66043 3.47316 4.43941 4.16003 5.11335C4.63569 5.58132 5.25069 5.55498 5.87755 5.52813Z" fill="black"/>
<path d="M35.5604 9.19581C33.8456 9.76793 32.6626 9.25076 32.3523 7.75742C32.1891 6.98328 32.2472 6.20429 32.5301 5.44955C32.9115 4.41843 33.6695 4.11136 34.9301 4.45237C34.9543 4.45884 34.9834 4.44753 35.027 4.44106C35.1531 4.28429 35.2824 4.11944 35.423 3.94328C34.3822 3.25965 32.9551 3.42288 32.1794 4.28591C31.5798 4.95177 31.3454 5.72268 31.2695 6.53237C31.1838 7.46167 31.2986 8.36349 31.9127 9.17965C32.5559 10.033 33.6711 10.4338 34.8186 10.1655C35.6282 9.9748 35.7188 9.89076 35.5604 9.19581Z" fill="black"/>
<path fill-rule="evenodd" clip-rule="evenodd" d="M8.41212 14.6132V24.4103H9.77131V28.058H8.07434V25.679H1.74707V28.0515H0V24.4572C0.011071 24.4529 0.022142 24.448 0.0330653 24.4431C0.0636013 24.4295 0.0929824 24.4165 0.11798 24.42C0.764444 24.5283 1.01818 24.2309 1.2299 23.78C1.8699 22.4128 2.1899 20.9921 2.30788 19.5441C2.40019 18.407 2.44702 17.2684 2.49426 16.1201C2.51483 15.6199 2.53548 15.1178 2.56 14.6132H8.41212ZM2.68606 24.3974H6.51648C6.51648 21.5627 6.51648 18.7748 6.51809 15.995H4.15035C4.15035 16.0938 4.15072 16.19 4.15108 16.2844C4.1518 16.4678 4.15248 16.6442 4.15035 16.8192C4.14993 16.8742 4.14953 16.9292 4.14914 16.9841C4.13712 18.6474 4.12508 20.3138 3.65417 21.9392C3.48819 22.5113 3.24872 23.069 3.00942 23.6262C2.8992 23.8829 2.78901 24.1395 2.68606 24.3974Z" fill="black"/>
<path fill-rule="evenodd" clip-rule="evenodd" d="M24.5867 9.36415C24.6766 9.33611 24.7669 9.30796 24.8583 9.2815C25.1944 9.64029 25.1815 9.79544 24.695 9.96352C24.2587 10.1154 23.7948 10.2463 23.331 10.2948C22.3726 10.3967 21.5435 9.98615 21.1847 9.18291C20.9374 8.63665 20.7774 8.04675 20.7047 7.46655C20.59 6.53241 20.7758 5.6112 21.2639 4.75625C21.4385 4.44918 21.6873 4.14695 21.9831 3.91099C22.7702 3.27908 23.7609 3.4019 24.333 4.1712C24.9843 5.04716 25.1104 6.01039 25.0425 7.03827H21.9152C21.8926 7.72514 21.8748 8.3813 22.2449 8.99221C22.5601 9.51423 23.1516 9.69847 23.9807 9.53039C24.1862 9.48906 24.3855 9.42689 24.5867 9.36415ZM23.6801 4.68352C23.3681 4.22453 22.7863 4.2116 22.434 4.64958C22.03 5.15544 21.912 5.72756 21.878 6.34493H24.0566C24.0712 5.75503 24.0292 5.19261 23.6801 4.68352Z" fill="black"/>
<path d="M27.7334 14.82C27.6655 14.7376 27.5798 14.6131 27.4942 14.6099C26.9786 14.5889 26.4614 14.597 25.8909 14.597C25.8909 16.1307 25.8909 17.6435 25.8909 19.1643C24.7693 19.1643 23.7026 19.1643 22.5455 19.1643C22.5455 17.6305 22.5455 16.1275 22.5455 14.6051C21.92 14.6051 21.3495 14.6051 20.7612 14.6051C20.7612 18.3303 20.7612 22.0362 20.7612 25.7598C21.3673 25.7598 21.9475 25.7598 22.5681 25.7598C22.5681 25.5982 22.5681 25.4592 22.5681 25.3235C22.5681 24.0208 22.5665 22.7263 22.5681 21.4253C22.5681 20.7093 22.5681 20.7093 23.4247 20.7093C24.236 20.7093 25.0473 20.7093 25.9039 20.7093C25.9039 22.4241 25.9039 24.0871 25.9039 25.763C26.5325 25.763 27.1144 25.763 27.7172 25.763C27.7253 25.6402 27.7382 25.5352 27.7382 25.435C27.7382 21.9408 27.7382 18.4467 27.7382 14.9558C27.7382 14.9089 27.7608 14.8507 27.7334 14.82Z" fill="black"/>
<path d="M28.7305 6.26412C29.3543 5.54654 29.9507 4.81442 30.5568 4.08876C30.6311 3.99987 30.6958 3.90614 30.7992 3.77038C30.6036 3.77038 30.4889 3.78331 30.3806 3.76876C29.9378 3.70896 29.6679 3.8528 29.4271 4.16957C28.8954 4.86775 28.3055 5.53361 27.7366 6.21078C27.6719 6.28674 27.5911 6.353 27.436 6.50331C27.436 5.53199 27.436 4.66896 27.436 3.78816C27.0869 3.78816 26.7814 3.78816 26.4485 3.78816C26.4485 5.86654 26.4485 7.91098 26.4485 9.95381C26.7879 9.95381 27.0933 9.95381 27.4505 9.95381C27.4505 9.22169 27.4343 8.50412 27.4602 7.78977C27.4699 7.54412 27.583 7.29846 27.6477 7.0528C27.84 7.17078 27.9224 7.27583 27.9952 7.38573C28.5107 8.15987 29.0198 8.93401 29.5402 9.70331C29.6081 9.80513 29.7244 9.9425 29.8343 9.95704C30.1285 9.99422 30.4307 9.96997 30.7943 9.96997C30.0703 8.86775 29.3947 7.82694 28.703 6.79098C28.5721 6.59704 28.5624 6.45644 28.7305 6.26412Z" fill="black"/>
<path d="M52.4703 14.5744C52.1794 14.5647 52.0485 14.6471 51.9451 14.8685C51.2453 16.4103 50.5277 17.9441 49.815 19.481C49.503 20.1534 49.1798 20.8257 48.8647 21.498C48.834 21.4948 48.8097 21.4883 48.779 21.4851C48.779 19.1966 48.779 16.9081 48.779 14.6018C48.1519 14.6018 47.5701 14.6018 46.9738 14.6018C46.9738 18.3336 46.9738 22.0523 46.9738 25.7728C47.5701 25.7728 48.1325 25.7728 48.7467 25.7728C49.8731 23.3388 50.9996 20.8952 52.1358 18.4305C52.1358 20.8839 52.1358 23.3259 52.1358 25.7663C52.8437 25.7663 53.4998 25.7663 54.1754 25.7663C54.1754 22.0346 54.1754 18.3287 54.1754 14.5824C53.5887 14.5824 53.0295 14.5986 52.4703 14.5744Z" fill="black"/>
<path fill-rule="evenodd" clip-rule="evenodd" d="M17.7909 24.3289C17.9527 24.2751 18.1171 24.2204 18.2868 24.168C18.3935 24.4266 18.5131 24.7207 18.631 25.0116C17.1361 26.0573 14.7522 26.3094 13.2783 25.5837C12.3991 25.1538 11.8706 24.4815 11.5587 23.709C10.5211 21.1522 10.6375 18.6165 11.9918 16.155C12.4541 15.3163 13.1409 14.6084 14.2674 14.3029C15.3518 14.0088 16.2213 14.2205 16.9438 14.9494C17.7599 15.7736 18.1543 16.7546 18.3531 17.7777C18.461 18.3395 18.4984 18.9143 18.5366 19.5001C18.5539 19.7652 18.5713 20.0327 18.5955 20.3021H13.01C13.0112 20.376 13.0122 20.4496 13.0132 20.5229C13.0261 21.4811 13.0384 22.3933 13.3882 23.2791C13.8763 24.5203 14.9947 24.9938 16.7062 24.6431C17.0718 24.568 17.4242 24.4508 17.7909 24.3289ZM15.0561 15.612C14.4678 15.5845 14.1171 15.8868 13.8537 16.2569C13.2347 17.128 13.0537 18.0961 12.9567 19.1288H16.7951C16.7999 18.1526 16.7143 17.212 16.2036 16.3344C15.9724 15.9433 15.6314 15.6427 15.0561 15.612Z" fill="black"/>
<path fill-rule="evenodd" clip-rule="evenodd" d="M19.1257 3.7865V9.26367C19.2684 9.26889 19.398 9.27411 19.5276 9.27934C19.6387 9.28381 19.7498 9.28829 19.8691 9.29276V11.2839H18.9689V9.99902H15.3923V11.2903H14.4404V9.30246C14.9175 9.36567 15.0358 9.08829 15.1569 8.80447C15.1658 8.78352 15.1748 8.76254 15.1839 8.74165C15.7117 7.5302 15.7656 6.26401 15.8196 4.99846C15.8205 4.97751 15.8214 4.95655 15.8222 4.93559C15.8331 4.68718 15.8301 4.4395 15.827 4.17935C15.8254 4.05191 15.8239 3.92147 15.8239 3.7865H19.1257ZM15.8594 9.26367H18.0833V4.56387H16.7629C16.7521 4.81107 16.7462 5.05835 16.7402 5.30528C16.7077 6.65823 16.6753 8.00083 15.8594 9.26367Z" fill="black"/>
<path d="M39.381 14.5986C39.381 18.3384 39.381 22.0508 39.3858 25.7647C39.9418 25.7647 40.4703 25.7647 41.0359 25.7647C41.0359 22.416 41.0359 19.0916 41.0359 15.7219C42.7361 15.7219 44.404 15.7219 46.067 15.7219C46.067 15.3227 46.067 14.9687 46.067 14.5986C43.8335 14.5986 41.6291 14.5986 39.381 14.5986Z" fill="black"/>
</svg>
