<svg width="49" height="30" viewBox="0 0 49 30" fill="none" xmlns="http://www.w3.org/2000/svg">
<path fill-rule="evenodd" clip-rule="evenodd" d="M34.2615 0.387207C30.4843 0.388218 27.0413 1.81994 24.4464 4.17149C21.8495 1.82297 18.4085 0.390237 14.6353 0.390237H14.5414C6.50638 0.442741 0 6.97941 0 15.0256C0 23.104 6.55686 29.6599 14.6343 29.6599C18.4075 29.6599 21.8485 28.2291 24.4444 25.8786C23.9022 25.3889 23.4115 24.8467 22.948 24.2793H25.97C25.5146 24.8376 25.0179 25.3606 24.4837 25.8473H24.4817C24.4744 25.8552 24.4667 25.8613 24.4591 25.8673L24.4591 25.8674L24.4537 25.8717C24.4505 25.8742 24.4474 25.8768 24.4444 25.8796C27.0423 28.2322 30.4873 29.6659 34.2665 29.6649C42.349 29.6619 48.8988 23.107 48.8968 15.0256V15.0185C48.8978 6.93701 42.344 0.385189 34.2615 0.387207ZM23.1156 5.68298H25.8973C26.3072 6.17974 26.6879 6.70276 27.0332 7.25001H22.0706C22.3907 6.72699 22.742 6.18883 23.1156 5.68298ZM27.8773 8.78674H21.2063C20.9126 9.34158 20.6871 9.80328 20.5487 10.0868L20.5486 10.087L20.5486 10.0871C20.4858 10.2156 20.4409 10.3075 20.4157 10.3548H28.5083C28.3246 9.81762 28.1145 9.2936 27.8773 8.78674ZM5.97428 18.7533L6.86179 13.1576L4.85959 18.7533H3.7863L3.64697 13.1576L2.69888 18.7533H1.19546L2.44141 11.3321H4.71521L4.79497 15.8858L6.3307 11.3321H8.79734L7.56856 18.7533H5.97428ZM11.3417 18.1485L11.2902 18.7412H12.6624L13.2743 14.45C13.2743 12.6296 11.686 12.571 11.1337 12.571C10.0665 12.571 9.24665 12.9143 9.24665 12.9143L9.02048 14.2572C9.02048 14.2572 9.69596 13.9836 10.7188 13.9836C11.2993 13.9836 11.7234 14.0482 11.7234 14.5197C11.7234 14.8065 11.6719 14.9125 11.6719 14.9125C11.6719 14.9125 11.2145 14.8741 11.0025 14.8741C9.65456 14.8741 8.23899 15.4496 8.23899 17.1853C8.23899 18.5503 9.1679 18.8644 9.74342 18.8644C10.7079 18.8644 11.1915 18.3159 11.3121 18.1791C11.329 18.1599 11.3388 18.1489 11.3417 18.1485ZM17.0888 16.8511C17.0888 18.8507 15.2183 18.8366 14.7741 18.8333L14.7322 18.8331C13.5238 18.8331 13.0873 18.6787 12.9985 18.6473L12.9877 18.6435L12.9835 18.6422L13.1915 17.2792C13.1919 17.2768 13.2169 17.2843 13.2623 17.298C13.4505 17.3545 13.9892 17.5164 14.5757 17.5164C14.9958 17.5164 15.541 17.475 15.541 16.9732C15.541 16.6776 15.2389 16.5262 14.8725 16.3425C14.3078 16.0593 13.5903 15.6996 13.5903 14.6176C13.5903 13.0436 14.7595 12.5831 15.9126 12.5831C16.8031 12.5831 17.3503 12.7053 17.3503 12.7053L17.1535 14.0805C17.1535 14.0805 16.3084 14.0108 16.0893 14.0108C15.5349 14.0108 15.233 14.132 15.233 14.5197C15.2327 14.8225 15.5126 14.9501 15.8551 15.1062C16.3943 15.352 17.0888 15.6685 17.0888 16.8511ZM19.724 17.3683C19.6503 17.3808 19.5715 17.3943 19.4979 17.3943C18.9557 17.3943 18.8962 17.1075 18.9295 16.8925L19.3677 14.1895H20.1926L20.3915 12.7225H19.614L19.7726 11.8117H18.2146C18.1803 11.8451 17.2948 16.9369 17.2948 17.5548C17.2948 18.4756 17.8108 18.8815 18.5367 18.8755C19.0325 18.8719 19.4331 18.7517 19.6312 18.6922L19.6312 18.6922L19.6313 18.6921C19.6603 18.6834 19.6849 18.676 19.7049 18.6705L19.8998 17.3468C19.8497 17.3468 19.7888 17.3572 19.724 17.3683ZM22.9248 12.5508C24.6352 12.5508 25.1471 13.8028 25.1471 14.8297C25.1471 15.2406 24.9411 16.2503 24.9411 16.2503H21.7748C21.7748 16.2503 21.482 17.4973 23.155 17.4973C23.9395 17.4973 24.8099 17.1136 24.8099 17.1136L24.5352 18.615C24.5352 18.615 24.0324 18.8714 22.8895 18.8714C21.6506 18.8714 20.1976 18.3474 20.1976 16.1463C20.1987 14.239 21.3578 12.5508 22.9248 12.5508ZM21.8596 22.7718H27.0514C27.3654 22.269 27.6501 21.746 27.9045 21.2048H20.9953C21.2487 21.749 21.5435 22.267 21.8596 22.7718ZM26.703 18.7644H25.1037L26.076 12.7245H27.5269L27.3876 13.5999C27.3876 13.5999 27.9045 12.6478 28.6022 12.6478C28.8052 12.6478 28.9031 12.6679 28.9031 12.6679C28.6961 13.09 28.5134 13.4767 28.3236 14.4753C27.4319 14.1592 27.2186 15.5241 26.9165 17.4572C26.8519 17.8705 26.7832 18.3099 26.703 18.7644ZM31.4334 18.8846C31.9584 18.8846 32.7964 18.6705 32.7964 18.6705L33.0751 16.9702C33.0751 16.9702 32.3128 17.3529 31.7868 17.3529C30.6801 17.3529 30.2369 16.5088 30.2369 15.6031C30.2369 13.7645 31.188 12.7528 32.2482 12.7528C33.0408 12.7528 33.6779 13.198 33.6779 13.198L33.9323 11.5472C33.9323 11.5472 32.9903 11.1655 32.1775 11.1655C30.3793 11.1655 28.6295 12.7265 28.6295 15.6576C28.6295 17.6012 29.5735 18.8846 31.4334 18.8846ZM36.5474 18.7442L36.5999 18.1475C36.5967 18.1479 36.5865 18.1594 36.5689 18.1793C36.4459 18.318 35.9624 18.8633 35.0016 18.8633C34.4261 18.8633 33.4972 18.5493 33.4972 17.1842C33.4972 15.4486 34.9127 14.8731 36.2596 14.8731C36.4717 14.8731 36.9301 14.9115 36.9301 14.9115C36.9301 14.9115 36.9826 14.8065 36.9826 14.5197C36.9826 14.0482 36.5585 13.9836 35.9769 13.9836C34.9541 13.9836 34.2797 14.2572 34.2797 14.2572L34.5058 12.9143C34.5058 12.9143 35.3257 12.571 36.3939 12.571C36.9452 12.571 38.5345 12.6296 38.5334 14.45L37.9216 18.7412C37.9206 18.7442 36.5474 18.7442 36.5474 18.7442ZM38.1861 18.7644H39.7854C39.8656 18.3102 39.9342 17.8711 39.9988 17.458C40.301 15.5244 40.5143 14.1591 41.407 14.4753C41.5958 13.4767 41.7806 13.09 41.9865 12.6679C41.9865 12.6679 41.8896 12.6478 41.6867 12.6478C40.989 12.6478 40.471 13.5999 40.471 13.5999L40.6104 12.7245H39.1584L38.1861 18.7644ZM44.5602 18.7482L44.6279 18.1919C44.6279 18.1919 44.1109 18.8442 43.1759 18.8442C41.8805 18.8442 41.2454 17.5932 41.2454 16.3149C41.2454 14.338 42.4348 12.6144 43.8625 12.6144C44.7813 12.6165 45.368 13.4272 45.368 13.4272L45.7052 11.3422L47.2672 11.3392L46.0758 18.7482H44.5602ZM47.4671 18.7159C47.5418 18.6715 47.6004 18.614 47.6418 18.5392C47.6842 18.4645 47.7044 18.3868 47.7044 18.305C47.7044 18.2232 47.6852 18.1445 47.6418 18.0687C47.5994 17.992 47.5408 17.9344 47.4641 17.893C47.3893 17.8516 47.3126 17.8304 47.2318 17.8304C47.1531 17.8304 47.0774 17.8516 47.0006 17.893C46.9269 17.9334 46.8653 17.994 46.8239 18.0687C46.7825 18.1434 46.7613 18.2222 46.7613 18.305C46.7613 18.3868 46.7815 18.4635 46.8239 18.5392C46.8653 18.614 46.9239 18.6715 46.9986 18.7159C47.0733 18.7573 47.1511 18.7785 47.2318 18.7785C47.3146 18.7785 47.3934 18.7573 47.4671 18.7159Z" fill="black"/>
<path d="M47.5165 23.005C47.5064 22.998 47.4973 22.9869 47.4812 22.9808C47.465 22.9747 47.4398 22.9717 47.4004 22.9717H47.3055V23.1232H47.4065C47.4539 23.1232 47.4852 23.1191 47.5034 23.102C47.5206 23.0878 47.5286 23.0707 47.5286 23.0464C47.5286 23.0303 47.5246 23.0192 47.5165 23.005Z" fill="black"/>
<path fill-rule="evenodd" clip-rule="evenodd" d="M47.7049 22.7421C47.785 22.7858 47.848 22.8445 47.894 22.9278C47.9378 23.0057 47.9602 23.0889 47.9602 23.1754C47.9602 23.2618 47.9388 23.3451 47.894 23.423C47.8502 23.5019 47.7871 23.566 47.7091 23.6097C47.6311 23.6535 47.5478 23.6759 47.4623 23.6759C47.3747 23.6759 47.2914 23.6535 47.2123 23.6097C47.1344 23.566 47.0724 23.5019 47.0264 23.423C46.9826 23.3451 46.9602 23.2607 46.9602 23.1754C46.9602 23.09 46.9805 23.0067 47.0264 22.9278C47.0702 22.8467 47.1354 22.7858 47.2145 22.7421C47.2935 22.6983 47.3747 22.6759 47.4602 22.6759C47.5435 22.6759 47.6247 22.6983 47.7049 22.7421ZM47.5393 23.3685L47.5863 23.4529H47.6943L47.628 23.3472C47.596 23.2981 47.5703 23.2629 47.5479 23.2415C47.5361 23.2298 47.5212 23.2191 47.5019 23.2127C47.5479 23.2095 47.5863 23.1914 47.6141 23.1636C47.6408 23.1327 47.6558 23.0996 47.6558 23.0601C47.6558 23.0324 47.6483 23.0057 47.6312 22.9811C47.6163 22.9545 47.5917 22.9395 47.5628 22.9288C47.5372 22.9182 47.4912 22.9128 47.4271 22.9128H47.2412V23.4518H47.3288V23.2223H47.3791C47.409 23.2223 47.4325 23.2309 47.4474 23.2415C47.4709 23.2586 47.5019 23.3024 47.5393 23.3685Z" fill="black"/>
<path d="M11.1287 16.0322C9.98671 16.0322 9.75549 16.5451 9.75549 16.9722C9.75549 17.1923 9.8817 17.5599 10.3653 17.5599C11.3033 17.5599 11.4982 16.3301 11.4679 16.0686C11.4235 16.0595 11.3952 16.0332 11.1287 16.0322Z" fill="black"/>
<path d="M22.9308 13.9452C22.0817 13.9452 21.9181 14.9115 21.9181 15.0134H23.6477C23.6477 14.9357 23.8102 13.9452 22.9308 13.9452Z" fill="black"/>
<path d="M44.1322 14.1138C43.4466 14.1138 42.9044 14.9094 42.9054 16.118C42.9054 16.8551 43.1679 17.3276 43.7293 17.3276C44.5734 17.3276 44.9803 16.226 44.9803 15.4052C44.9803 14.4995 44.6925 14.1138 44.1322 14.1138Z" fill="black"/>
<path fill-rule="evenodd" clip-rule="evenodd" d="M47.5819 17.9763C47.6614 18.0208 47.7242 18.0819 47.7691 18.1608C47.814 18.2409 47.837 18.3249 47.837 18.4089C47.837 18.4941 47.8165 18.5768 47.7717 18.6557C47.7255 18.7359 47.664 18.7969 47.5845 18.8415C47.5075 18.8847 47.4229 18.9102 47.337 18.9102C47.2511 18.9102 47.1691 18.8847 47.0896 18.8415C47.0101 18.7944 46.9499 18.7346 46.9024 18.6557C46.8601 18.5781 46.837 18.4941 46.837 18.4089C46.837 18.3262 46.8601 18.2409 46.905 18.1608C46.9499 18.0806 47.0127 18.017 47.0922 17.9763C47.1717 17.9331 47.255 17.9102 47.337 17.9102C47.4217 17.9102 47.5024 17.9318 47.5819 17.9763ZM47.4332 18.6366L47.4909 18.7359H47.6191L47.5396 18.6086C47.5024 18.5476 47.4717 18.5094 47.4447 18.4827C47.4319 18.4712 47.4152 18.4598 47.3896 18.4496C47.4434 18.4432 47.4896 18.428 47.5229 18.3911C47.5563 18.3554 47.5742 18.316 47.5742 18.2689C47.5742 18.2346 47.5665 18.2028 47.5447 18.1748C47.5229 18.1468 47.4947 18.1252 47.4627 18.1137C47.4306 18.0997 47.3742 18.0934 47.2986 18.0934H47.0742V18.7346H47.1819V18.4623H47.2409C47.2781 18.4623 47.3037 18.47 47.3255 18.4865C47.3524 18.5056 47.3883 18.5565 47.4332 18.6366Z" fill="black"/>
<path d="M36.3878 16.0322C35.2459 16.0322 35.0146 16.5451 35.0146 16.9722C35.0146 17.1923 35.1398 17.5599 35.6245 17.5599C36.5625 17.5599 36.7563 16.3301 36.7271 16.0686C36.6816 16.0595 36.6534 16.0332 36.3878 16.0322Z" fill="black"/>
<path d="M47.3176 18.1596C47.3095 18.1495 47.2984 18.1414 47.2833 18.1344C47.2661 18.1293 47.2409 18.1243 47.2005 18.1243V18.1253H47.1086V18.2787H47.2086C47.256 18.2787 47.2873 18.2727 47.3065 18.2575C47.3217 18.2424 47.3307 18.2232 47.3307 18.201C47.3307 18.1838 47.3267 18.1737 47.3176 18.1596Z" fill="black"/>
</svg>
