<svg width="80" height="26" viewBox="0 0 80 26" fill="none" xmlns="http://www.w3.org/2000/svg">
<path d="M31.9217 1.29077L27.87 25.0674H34.35L38.405 1.29077H31.9217Z" fill="black"/>
<path d="M22.4366 1.3175L16.09 17.5325L15.4133 15.0842C14.1616 12.1342 10.6083 7.8975 6.43665 5.2275L12.24 25.0558L19.0966 25.0442L29.3016 1.3125L22.4366 1.3175Z" fill="black"/>
<path d="M12.9533 3.01907C12.5767 1.57074 11.485 1.13907 10.13 1.0874H0.0833333L0 1.56074C7.81833 3.4574 12.9917 8.0274 15.1383 13.5224L12.9533 3.01907Z" fill="black"/>
<path d="M51.5384 5.84911C53.6584 5.81578 55.195 6.27911 56.3884 6.75911L56.9734 7.03411L57.85 1.88078C56.5667 1.39911 54.555 0.882446 52.045 0.882446C45.6417 0.882446 41.1284 4.10745 41.0934 8.72911C41.0517 12.1441 44.3084 14.0508 46.7684 15.1891C49.2934 16.3558 50.14 17.0974 50.1284 18.1391C50.1084 19.7308 48.115 20.4608 46.2534 20.4608C43.6584 20.4608 42.28 20.1024 40.1517 19.2158L39.3167 18.8358L38.405 24.1574C39.9217 24.8224 42.72 25.3941 45.625 25.4241C52.4367 25.4241 56.8634 22.2374 56.91 17.2991C56.9384 14.5974 55.21 12.5358 51.465 10.8441C49.1984 9.74078 47.8117 9.00745 47.825 7.89411C47.825 6.90578 49.0017 5.84911 51.5384 5.84911Z" fill="black"/>
<path fill-rule="evenodd" clip-rule="evenodd" d="M69.4733 1.31738H74.48L79.7233 25.0807H73.7117C73.7117 25.0807 73.115 22.349 72.9217 21.519C72.4233 21.519 70.3367 21.5162 68.3722 21.5136C66.6248 21.5113 64.974 21.5091 64.6233 21.5091C64.3717 22.1507 63.2617 25.0807 63.2617 25.0807H56.4567L66.0783 3.29072C66.7617 1.74072 67.9183 1.31738 69.4733 1.31738ZM69.07 9.99738C69.07 9.99738 67.0217 15.2774 66.4883 16.6424H71.8717L70.37 9.77738L69.9333 7.72738C69.7695 8.16518 69.551 8.73338 69.3746 9.19205C69.1904 9.67105 69.0521 10.0306 69.07 9.99738Z" fill="black"/>
</svg>
