<svg width="40" height="30" viewBox="0 0 40 30" fill="none" xmlns="http://www.w3.org/2000/svg">
<g clip-path="url(#clip0)">
<rect x="0.5" y="0.5" width="39" height="29" rx="4.5" stroke="#4BC2C1"/>
<path d="M16.5737 20.616C16.5737 20.4947 16.5504 20.434 16.5037 20.434L16.1817 20.588C16.1817 20.5227 16.1444 20.476 16.0697 20.448L15.9577 20.434C15.883 20.434 15.7897 20.4667 15.6777 20.532C15.659 20.4853 15.6357 20.4387 15.6077 20.392C15.5797 20.3453 15.5564 20.3033 15.5377 20.266C15.4164 20.0327 15.295 19.776 15.1737 19.496C15.0617 19.2067 14.9544 18.9313 14.8517 18.67C14.7584 18.4087 14.6837 18.2033 14.6277 18.054C14.5904 17.9327 14.5484 17.7507 14.5017 17.508C14.455 17.2653 14.4084 16.9573 14.3617 16.584C14.4644 16.6493 14.5437 16.682 14.5997 16.682C14.665 16.682 14.7257 16.584 14.7817 16.388C14.8097 16.4253 14.861 16.444 14.9357 16.444C14.9917 16.444 15.0337 16.4253 15.0617 16.388L15.2857 16.052L15.5377 16.136H15.5517C15.5704 16.136 15.589 16.1267 15.6077 16.108C15.6264 16.0893 15.6544 16.0707 15.6917 16.052C15.7664 16.0053 15.8224 15.982 15.8597 15.982L15.9017 15.996C16.135 16.108 16.2844 16.3133 16.3497 16.612C16.5177 17.3213 16.6857 17.676 16.8537 17.676C17.0217 17.676 17.2177 17.4987 17.4417 17.144C17.5537 16.9667 17.6657 16.7613 17.7777 16.528C17.899 16.2947 18.0204 16.0333 18.1417 15.744C18.1604 15.856 18.179 15.912 18.1977 15.912C18.2444 15.912 18.3237 15.7953 18.4357 15.562C18.557 15.3287 18.7484 15.0067 19.0097 14.596C19.159 14.344 19.3457 14.0593 19.5697 13.742C19.803 13.4247 20.0504 13.098 20.3117 12.762C20.573 12.426 20.825 12.1087 21.0677 11.81C21.3197 11.5113 21.5437 11.2547 21.7397 11.04C21.9357 10.8253 22.0804 10.6853 22.1737 10.62C22.5284 10.3773 22.8084 10.144 23.0137 9.92C23.0044 9.98533 22.9904 10.046 22.9717 10.102C22.9624 10.1487 22.9577 10.1813 22.9577 10.2C22.9577 10.2373 22.9764 10.256 23.0137 10.256L23.4057 10.06V10.116C23.4057 10.1907 23.4244 10.228 23.4617 10.228C23.4897 10.228 23.5457 10.186 23.6297 10.102C23.7137 10.018 23.7604 9.95733 23.7697 9.92L23.7417 10.116L24.2177 9.836L24.1057 10.088C24.255 9.98533 24.3624 9.934 24.4277 9.934C24.465 9.934 24.493 9.95733 24.5117 10.004C24.5304 10.0413 24.5397 10.0787 24.5397 10.116C24.5397 10.172 24.5164 10.2373 24.4697 10.312C24.423 10.3867 24.3624 10.4753 24.2877 10.578C24.2317 10.6527 24.1384 10.7647 24.0077 10.914C23.8864 11.054 23.6997 11.264 23.4477 11.544C23.1957 11.8147 22.8597 12.1927 22.4397 12.678C22.3277 12.7993 22.155 13.014 21.9217 13.322C21.6884 13.6207 21.4224 13.9707 21.1237 14.372C20.8344 14.764 20.545 15.1607 20.2557 15.562C19.9664 15.9633 19.7097 16.3273 19.4857 16.654C19.2617 16.9713 19.103 17.2093 19.0097 17.368L18.1417 18.838C17.955 19.1553 17.801 19.4167 17.6797 19.622C17.5584 19.818 17.465 19.9533 17.3997 20.028C17.2597 20.196 17.1057 20.3453 16.9377 20.476L16.8117 20.406L16.6997 20.476L16.5737 20.616Z" fill="#4BC2C1"/>
<rect width="30" height="30" fill="#D8D8D8" fill-opacity="0.01"/>
</g>
<defs>
<clipPath id="clip0">
<rect width="40" height="30" fill="white"/>
</clipPath>
</defs>
</svg>
