<svg width="24" height="21" viewBox="0 0 24 21" fill="none" xmlns="http://www.w3.org/2000/svg">
<path fill-rule="evenodd" clip-rule="evenodd" d="M13 4V0H11V4H9L12 8L15 4H13ZM1.37854 6.66366C1.1024 6.18537 1.26627 5.57378 1.74457 5.29764C2.22286 5.02149 2.83445 5.18537 3.11059 5.66366L5.26106 9.38838H18.739L20.8894 5.66366C21.1656 5.18537 21.7771 5.02149 22.2554 5.29764C22.7337 5.57378 22.8976 6.18537 22.6215 6.66366L21.0484 9.38838H22.1947C22.7065 9.38838 23.1215 9.80331 23.1215 10.3152V10.933C23.1215 11.4449 22.7065 11.8598 22.1947 11.8598H21.8857L20.8774 18.9184C20.7469 19.8315 19.9649 20.5098 19.0424 20.5098H4.95757C4.03514 20.5098 3.25309 19.8315 3.1226 18.9184L2.11426 11.8598H1.80533C1.29347 11.8598 0.87854 11.4449 0.87854 10.933V10.3152C0.87854 9.80331 1.29347 9.38838 1.80533 9.38838H2.95166L1.37854 6.66366ZM12.9268 17.1116V12.7866C12.9268 12.2747 12.5119 11.8598 12 11.8598C11.4881 11.8598 11.0732 12.2747 11.0732 12.7866V17.1116C11.0732 17.6235 11.4881 18.0384 12 18.0384C12.5119 18.0384 12.9268 17.6235 12.9268 17.1116ZM17.2518 12.7866V17.1116C17.2518 17.6235 16.8369 18.0384 16.325 18.0384C15.8132 18.0384 15.3982 17.6235 15.3982 17.1116V12.7866C15.3982 12.2747 15.8132 11.8598 16.325 11.8598C16.8369 11.8598 17.2518 12.2747 17.2518 12.7866ZM8.60178 17.1116V12.7866C8.60178 12.2747 8.18685 11.8598 7.67499 11.8598C7.16313 11.8598 6.7482 12.2747 6.7482 12.7866V17.1116C6.7482 17.6235 7.16313 18.0384 7.67499 18.0384C8.18685 18.0384 8.60178 17.6235 8.60178 17.1116Z" fill="white"/>
</svg>
