<svg width="140" height="46" viewBox="0 0 140 46" fill="none" xmlns="http://www.w3.org/2000/svg">
<path d="M44.451 22.6596C43.4033 22.027 42.5476 21.121 41.976 20.0388C41.3762 18.9046 41.0708 17.638 41.0877 16.3551C41.0797 15.0558 41.3556 13.7704 41.8962 12.5889C42.4213 11.4322 43.2572 10.444 44.3108 9.73435C45.3815 9.001 46.6744 8.63432 48.1897 8.63432C49.6621 8.62555 51.103 9.06063 52.3244 9.88285L53.3268 10.6089V13.5253H52.5898C52.4532 12.2557 52.0064 11.2629 51.2492 10.547C50.492 9.83106 49.5198 9.47309 48.3327 9.47309C47.3877 9.46575 46.463 9.7479 45.683 10.2816C44.8517 10.8596 44.1964 11.6562 43.7896 12.5834C43.3249 13.5808 43.093 14.734 43.0939 16.043C43.0733 17.207 43.3253 18.3597 43.8295 19.4091C44.2736 20.343 44.9591 21.1415 45.8151 21.7219C46.6323 22.2687 47.5956 22.5562 48.5789 22.5469C49.4941 22.5461 50.3971 22.3364 51.2189 21.9336C52.0488 21.5368 52.7663 20.9389 53.3062 20.1942L53.8384 20.6232C53.0482 21.7287 52.1406 22.5029 51.1158 22.9456C50.1498 23.3773 49.1048 23.6039 48.0467 23.6111C46.783 23.6348 45.5377 23.3053 44.451 22.6596Z" fill="#4BC2C1"/>
<path d="M56.8827 13.0605H58.6359L61.489 19.5479C61.6669 19.9714 61.8713 20.4756 62.1023 21.0605H62.1257C62.1722 20.9073 62.2268 20.7568 62.2893 20.6095L62.5959 19.7294L65.0517 13.0578H66.2013L62.1023 23.3554H61.2842L56.8827 13.0605Z" fill="#4BC2C1"/>
<path fill-rule="evenodd" clip-rule="evenodd" d="M70.2933 21.0522C70.6964 21.8434 71.3164 22.5035 72.0809 22.9553C72.8539 23.4051 73.7345 23.6365 74.6288 23.6249C75.4695 23.6133 76.2974 23.4176 77.0543 23.0515C77.8807 22.6695 78.5802 22.0587 79.0701 21.2915L78.5793 20.879C78.174 21.3967 77.6513 21.8106 77.0543 22.0862C76.4578 22.4018 75.7945 22.5701 75.1197 22.5771C72.7684 22.54 72.118 20.3014 71.9076 18.6968H79.2846C79.297 16.9821 78.8763 14.4204 76.9045 13.2448C76.2912 12.879 75.5748 12.7319 74.7965 12.7319C73.851 12.7176 72.9221 12.981 72.1249 13.4895C71.3473 13.9883 70.7154 14.6837 70.2933 15.5053C69.8593 16.3362 69.6347 17.2603 69.6388 18.1977C69.6187 19.1885 69.8435 20.1691 70.2933 21.0522ZM74.813 13.5349C76.8233 13.6051 77.1877 16.9051 77.1877 17.7301L71.8347 17.7508C71.8347 15.6428 73.1218 13.4744 74.813 13.5349Z" fill="#4BC2C1"/>
<path d="M83.737 19.8546L83.7782 13.9199L82.201 13.9406V13.0605C83.5623 13.0468 84.8975 10.5855 84.8824 9.65459H85.5781V13.0605H89.0157V13.8581L85.5781 13.8993C85.5644 15.9866 85.5543 17.4331 85.5479 18.2389C85.541 19.0433 85.5369 19.4943 85.5369 19.5892C85.5369 20.5581 85.6528 21.2777 85.8848 21.748C86.1167 22.2182 86.5196 22.4538 87.0934 22.4547C87.4685 22.4481 87.8339 22.3345 88.1467 22.1275C88.5099 21.894 88.8204 21.5872 89.0583 21.2268L89.6083 21.6765C89.0767 22.4685 88.5509 22.9905 88.0312 23.2426C87.5624 23.4822 87.045 23.6115 86.5186 23.6208C84.6486 23.6208 83.7214 22.3654 83.737 19.8546Z" fill="#4BC2C1"/>
<path fill-rule="evenodd" clip-rule="evenodd" d="M93.2632 21.1031C93.704 21.8786 94.3482 22.5191 95.1264 22.9553C95.9146 23.4005 96.8061 23.6304 97.7114 23.6221C98.6376 23.6319 99.5462 23.3689 100.324 22.8659C101.115 22.3541 101.758 21.6426 102.187 20.8033C102.647 19.9188 102.883 18.9348 102.875 17.9378C102.885 17.0122 102.648 16.1007 102.187 15.2977C101.742 14.5158 101.095 13.8673 100.314 13.4194C99.5249 12.9626 98.6276 12.7252 97.7155 12.7319C96.7906 12.7227 95.8829 12.9825 95.103 13.4799C94.3129 13.983 93.673 14.6899 93.2508 15.526C92.7937 16.422 92.562 17.416 92.5757 18.4218C92.5615 19.3609 92.7989 20.2867 93.2632 21.1031ZM100.783 18.5304C100.782 19.7441 100.547 20.7607 100.076 21.5802V21.5747C99.6071 22.3933 98.8738 22.8026 97.8764 22.8026C97.2179 22.8152 96.5815 22.5648 96.1081 22.1069C95.5974 21.5979 95.2241 20.9678 95.0232 20.2753C94.7793 19.4831 94.6587 18.6581 94.6657 17.8291C94.6639 16.6145 94.9196 15.5911 95.433 14.7587C95.9463 13.9264 96.7072 13.5102 97.7155 13.5102C98.7358 13.5111 99.5022 14.0043 100.015 14.9897C100.527 15.9751 100.783 17.1554 100.783 18.5304Z" fill="#4BC2C1"/>
<path d="M110.056 22.7518C109.013 22.1789 108.16 21.3145 107.601 20.2643C107.014 19.1863 106.721 17.9107 106.721 16.4376C106.714 15.1318 106.99 13.84 107.529 12.6508C108.055 11.4804 108.894 10.4782 109.953 9.75497C111.031 9.01063 112.328 8.63891 113.843 8.63983C114.6 8.64244 115.353 8.74226 116.085 8.93683C116.787 9.11037 117.46 9.38848 118.08 9.76185L119.123 10.4494V13.4689H118.386C118.295 12.2149 117.841 11.2327 117.025 10.5222C116.209 9.81181 115.196 9.45705 113.986 9.45797C113.037 9.45148 112.109 9.74503 111.337 10.2967C110.507 10.89 109.848 11.6915 109.427 12.6205C108.944 13.6687 108.703 14.8121 108.721 15.966C108.7 17.1488 108.938 18.3219 109.417 19.4036C109.835 20.3584 110.508 21.1799 111.361 21.7782C112.198 22.3521 113.192 22.6524 114.206 22.6376C114.822 22.6352 115.434 22.5497 116.027 22.3832C116.628 22.2218 117.199 21.962 117.715 21.6146V17.1334L116.283 17.1251V16.3139H120.908V16.9904C120.254 16.9904 119.844 17.2393 119.68 17.737C119.508 18.2822 119.424 18.8512 119.43 19.4228V22.5537H118.88C118.308 22.5537 117.571 22.7311 116.67 23.0859C116.201 23.2662 115.714 23.3967 115.217 23.475C114.71 23.5635 114.197 23.6094 113.682 23.6125C112.312 23.618 111.103 23.3311 110.056 22.7518Z" fill="#4BC2C1"/>
<path fill-rule="evenodd" clip-rule="evenodd" d="M125.222 9.62158C125.217 9.93651 125.334 10.2411 125.549 10.4713C125.737 10.6957 126.014 10.8264 126.306 10.8289C126.608 10.8284 126.895 10.6982 127.094 10.4713C127.315 10.244 127.437 9.93843 127.433 9.62158C127.44 9.30223 127.327 8.99187 127.115 8.75256C126.921 8.52336 126.635 8.39198 126.335 8.39384C126.035 8.3957 125.751 8.53061 125.56 8.76218C125.34 8.99426 125.219 9.30219 125.222 9.62158ZM125.505 13.3727L125.488 20.1832C125.488 20.8377 125.505 23.2935 125.505 23.2935H127.273C127.273 23.2935 127.248 21.7383 127.248 21.1237V12.8556C127.248 12.8556 126.309 13.3727 125.505 13.3727Z" fill="#4BC2C1"/>
<path d="M134.514 23.365C134.027 23.2171 133.564 22.9999 133.139 22.7201L132.238 22.0491L132.538 21.0398C132.592 21.2323 133.798 22.1399 134.439 22.4437C135.05 22.7311 135.383 22.8233 135.902 22.8233C136.453 22.8327 136.995 22.6874 137.468 22.4039C137.902 22.1641 138.167 21.7024 138.155 21.2062C138.165 20.8546 138.045 20.5117 137.817 20.2437C137.581 19.9772 137.295 19.7583 136.977 19.5988C136.643 19.4283 136.176 19.2271 135.576 18.9952C134.979 18.7794 134.398 18.5231 133.836 18.2279C133.396 17.9874 133.012 17.656 132.71 17.2558C132.384 16.8047 132.218 16.257 132.24 15.7006C132.244 15.2314 132.356 14.7694 132.567 14.3503C132.814 13.8688 133.196 13.4701 133.667 13.2035C134.185 12.89 134.873 12.7328 135.73 12.7319C136.171 12.735 136.609 12.804 137.029 12.9368C137.482 13.0792 137.902 13.3091 138.267 13.6133L139.092 14.3476L138.69 15.218C138.419 14.8954 138.13 14.5879 137.825 14.2967C137.297 13.7701 136.579 13.479 135.833 13.4896C135.22 13.4896 134.732 13.6431 134.37 13.9502C134.029 14.2136 133.829 14.6196 133.828 15.0502C133.818 15.4173 133.945 15.7749 134.185 16.0526C134.438 16.3366 134.74 16.5724 135.077 16.7484C135.541 16.989 136.019 17.2007 136.509 17.3823C137.098 17.6131 137.672 17.8799 138.228 18.1812C138.663 18.4244 139.043 18.7555 139.343 19.1533C139.657 19.5753 139.819 20.0907 139.804 20.6163C139.823 21.2091 139.646 21.7917 139.302 22.2746C138.966 22.7257 138.514 23.0762 137.993 23.288C137.445 23.5143 136.856 23.6288 136.263 23.6249C135.67 23.6291 135.08 23.5414 134.514 23.365Z" fill="#4BC2C1"/>
<path fill-rule="evenodd" clip-rule="evenodd" d="M36.3094 8.02192C36.3092 8.03687 36.3091 8.05183 36.3046 8.06678C36.3015 8.07925 36.2952 8.08548 36.2906 8.08859C36.2802 8.11273 36.2682 8.13614 36.2547 8.15869C36.2297 8.20708 36.1994 8.25254 36.1644 8.29422C36.1463 8.31407 36.1271 8.3328 36.1067 8.3503C36.0633 8.38845 36.0151 8.42091 35.9634 8.44688C35.957 8.4501 35.9516 8.45546 35.9464 8.46063C35.939 8.46796 35.9321 8.47492 35.9229 8.47492C33.69 9.40531 33.6963 10.9339 33.6969 11.0613C33.6969 11.0629 33.6969 11.0643 33.6969 11.0655V11.1138C33.6942 11.1513 33.6874 11.1884 33.6766 11.2244C33.6724 11.2697 33.664 11.3145 33.6517 11.3584C33.6336 11.3962 33.6128 11.4326 33.5894 11.4674C33.5688 11.5058 33.5448 11.5423 33.5177 11.5764C33.487 11.6054 33.4536 11.6315 33.418 11.6543C33.3848 11.6828 33.3488 11.7078 33.3105 11.7291C33.2692 11.7452 33.2265 11.7572 33.1828 11.7649C33.1474 11.7779 33.1109 11.7878 33.0738 11.7945H33.0223C32.9357 11.7942 32.8499 11.7767 32.77 11.7431C32.7441 11.73 32.7196 11.7143 32.6968 11.6964C32.6476 11.6725 32.6016 11.6427 32.5597 11.6076C32.5387 11.5824 32.5195 11.5559 32.5021 11.5282C32.4685 11.49 32.4392 11.4482 32.4148 11.4035C32.3938 11.3257 32.373 11.2478 32.3525 11.1699V11.1325C32.3478 11.0234 32.2263 9.46566 29.9146 8.68678C29.9105 8.68542 29.9067 8.68228 29.903 8.67918C29.8981 8.67516 29.8934 8.6712 29.8881 8.6712C29.8252 8.64697 29.7664 8.61336 29.7136 8.5715L29.6607 8.52321C29.6195 8.48239 29.5838 8.43629 29.5547 8.38613C29.5501 8.37817 29.5438 8.36823 29.5378 8.35884C29.5297 8.34618 29.5223 8.33452 29.5205 8.33005C29.5192 8.32692 29.5167 8.32404 29.5142 8.32111C29.5104 8.31675 29.5065 8.31227 29.5065 8.30668C29.498 8.27549 29.4917 8.24373 29.4878 8.21166C29.4738 8.1665 29.4644 8.12005 29.4597 8.07301C29.4605 8.02417 29.4667 7.97557 29.4784 7.92814C29.4855 7.90789 29.4867 7.87777 29.4875 7.85703C29.4879 7.84586 29.4882 7.8374 29.4893 7.83467C29.4906 7.83135 29.4931 7.8286 29.4955 7.82593C29.4987 7.82234 29.5018 7.81889 29.5018 7.81442C29.5214 7.77008 29.5454 7.72781 29.5734 7.68824C29.5929 7.65402 29.6147 7.62122 29.6389 7.5901C29.6663 7.56569 29.6954 7.54331 29.7261 7.52312C29.7649 7.49 29.8072 7.46126 29.8523 7.43744L29.8694 7.42654C32.1539 6.4753 32.0977 4.89242 32.0955 4.82996C32.0955 4.82901 32.0955 4.82841 32.0955 4.82817V4.78767C32.0989 4.75232 32.1057 4.71737 32.1157 4.6833C32.1188 4.63617 32.1277 4.58961 32.1422 4.54465C32.1589 4.50771 32.1787 4.47227 32.2014 4.43873C32.2221 4.39869 32.2472 4.36108 32.2762 4.32657C32.3053 4.29814 32.3372 4.27258 32.3712 4.25024C32.4055 4.22129 32.4426 4.19572 32.4818 4.1739C32.5607 4.15141 32.6396 4.12908 32.7186 4.10692H32.7404C32.7424 4.10692 32.7428 4.10676 32.7432 4.10659C32.744 4.10624 32.7449 4.10587 32.7606 4.10692C32.7719 4.10767 32.7821 4.11133 32.7921 4.11491C32.8028 4.11875 32.8132 4.1225 32.8245 4.1225C33.0616 4.14061 33.2712 4.28366 33.3744 4.49792C33.39 4.53605 33.4015 4.57574 33.4087 4.61631C33.4229 4.65373 33.4338 4.6923 33.4414 4.73159C33.4408 4.74248 33.4408 4.7534 33.4414 4.7643C33.4445 4.84998 33.5426 6.43579 35.8793 7.21468C35.8871 7.21624 35.898 7.22558 35.898 7.22558C35.9439 7.24533 35.9873 7.27043 36.0273 7.30036C36.061 7.31782 36.0929 7.3387 36.1223 7.36267C36.1488 7.39178 36.1727 7.42304 36.194 7.45614C36.2252 7.49256 36.2523 7.53226 36.275 7.57453C36.2763 7.57785 36.2788 7.5806 36.2812 7.58327C36.2844 7.58687 36.2874 7.59031 36.2874 7.59478C36.2959 7.62597 36.3022 7.65772 36.3061 7.6898C36.3201 7.73496 36.3295 7.78141 36.3342 7.82844C36.3334 7.87729 36.3272 7.92588 36.3155 7.97332C36.3098 7.98952 36.3096 8.00572 36.3094 8.02192ZM31.6172 7.99668C32.1318 8.2982 32.583 8.69654 32.946 9.16969V9.17436C33.2695 8.67538 33.6876 8.24459 34.1767 7.90633C33.6615 7.60575 33.21 7.20726 32.8479 6.73333C32.5243 7.23095 32.1062 7.6602 31.6172 7.99668Z" fill="#4BC2C1"/>
<path fill-rule="evenodd" clip-rule="evenodd" d="M7.83785 41.7319C7.85144 41.777 7.86032 41.8235 7.86433 41.8705C7.86272 41.9182 7.85646 41.9657 7.84563 42.0123C7.84399 42.0437 7.83982 42.0749 7.83317 42.1057C7.82227 42.1151 7.82227 42.1291 7.82227 42.1291C7.81135 42.1527 7.79886 42.1756 7.78488 42.1976C7.76131 42.2465 7.73146 42.292 7.69609 42.3332C7.67792 42.3539 7.65813 42.3732 7.63689 42.3908C7.59396 42.4289 7.54632 42.4614 7.49513 42.4874C7.48735 42.4913 7.48073 42.4963 7.4741 42.5014C7.46748 42.5065 7.46086 42.5115 7.45307 42.5154C5.17138 43.4646 5.22624 45.0462 5.22851 45.1118C5.22855 45.1129 5.22857 45.1135 5.22857 45.1138V45.1543C5.22423 45.19 5.21746 45.2254 5.20832 45.2602C5.20431 45.3072 5.19544 45.3537 5.18184 45.3989C5.16523 45.4356 5.14487 45.4706 5.12109 45.5032C5.10056 45.5435 5.07603 45.5816 5.04787 45.6169C5.01774 45.6444 4.98544 45.6694 4.95129 45.6917C4.91803 45.7213 4.88143 45.7469 4.84224 45.768C4.80088 45.784 4.75812 45.796 4.71451 45.8039C4.67864 45.8175 4.64163 45.828 4.60391 45.835H4.55406C4.46753 45.8346 4.38188 45.8177 4.3017 45.7852C4.27358 45.7699 4.24651 45.7527 4.22069 45.7338C4.1744 45.7104 4.13101 45.6816 4.0914 45.6481C4.06802 45.6217 4.04667 45.5936 4.02753 45.564C3.99685 45.5272 3.96973 45.4875 3.94652 45.4456C3.93287 45.4092 3.92244 45.3717 3.91537 45.3334C3.90047 45.2941 3.88951 45.2534 3.88266 45.2119V45.1792C3.87798 45.0935 3.7814 43.5093 1.44474 42.7304C1.44018 42.7284 1.43644 42.7251 1.43283 42.7219C1.42781 42.7175 1.42304 42.7133 1.4167 42.7133C1.3542 42.6893 1.29586 42.6556 1.24379 42.6136C1.22459 42.5992 1.20637 42.5836 1.18926 42.5668C1.14891 42.5256 1.11385 42.4796 1.08489 42.4297C1.07235 42.4118 1.0609 42.393 1.05062 42.3737C1.04873 42.3699 1.04608 42.3666 1.04359 42.3635C1.03992 42.359 1.0366 42.3549 1.0366 42.3503C1.02724 42.3188 1.02098 42.2864 1.01791 42.2537C1.00321 42.2087 0.993799 42.1622 0.989868 42.1151C0.990864 42.0663 0.996603 42.0178 1.007 41.9702C1.00885 41.9388 1.01302 41.9075 1.01947 41.8767C1.02344 41.8707 1.02708 41.8645 1.03037 41.858C1.07124 41.7804 1.11703 41.7055 1.16745 41.6337C1.19539 41.6088 1.22506 41.5859 1.25625 41.5652C1.29438 41.5324 1.33621 41.5042 1.38087 41.4811C1.38866 41.4779 1.39956 41.4686 1.39956 41.4686C3.63258 40.5397 3.62616 39.0096 3.62564 38.8837C3.62563 38.8821 3.62562 38.8807 3.62562 38.8796V38.8297C3.62973 38.7923 3.63703 38.7553 3.64743 38.7191C3.65093 38.6742 3.65929 38.6298 3.67236 38.5867C3.68913 38.5482 3.71002 38.5117 3.73467 38.4777C3.75488 38.4385 3.77888 38.4015 3.80632 38.3671C3.83663 38.3382 3.86948 38.3121 3.90446 38.2892C3.93764 38.2611 3.97367 38.2365 4.01195 38.216C4.05307 38.1993 4.09591 38.1873 4.13969 38.1801C4.17556 38.1665 4.21257 38.156 4.25029 38.149H4.27054H4.29079C4.32753 38.1527 4.36397 38.1589 4.39984 38.1677C4.44515 38.1719 4.48999 38.1803 4.53381 38.1926C4.59754 38.2167 4.65698 38.2509 4.70983 38.2938C4.72132 38.3002 4.73226 38.3075 4.74255 38.3157C4.79778 38.3646 4.84369 38.4232 4.87807 38.4886C4.88674 38.4988 4.89455 38.5098 4.90144 38.5213C4.92428 38.5763 4.94049 38.6338 4.94973 38.6926C4.95864 38.7186 4.96593 38.7452 4.97154 38.7721V38.811C4.97777 38.9185 5.09928 40.4763 7.40946 41.2552C7.41725 41.2583 7.42971 41.2661 7.42971 41.2661C7.47566 41.2873 7.51947 41.3129 7.56056 41.3424C7.59293 41.3599 7.62369 41.3802 7.65247 41.4032C7.68027 41.4321 7.70482 41.4639 7.72569 41.4982C7.75639 41.5346 7.78303 41.5743 7.80513 41.6166C7.80964 41.6226 7.8138 41.6288 7.81759 41.6353C7.82673 41.6669 7.8335 41.6992 7.83785 41.7319ZM3.14894 42.0263C3.66431 42.3318 4.11557 42.7344 4.47773 43.2117V43.2055C4.80031 42.7054 5.21853 42.2739 5.70837 41.9359C5.19338 41.6344 4.74162 41.2361 4.37803 40.7629C4.05526 41.2607 3.63761 41.6899 3.14894 42.0263Z" fill="#4BC2C1"/>
<path fill-rule="evenodd" clip-rule="evenodd" d="M33.0348 14.5954C32.5893 14.4848 32.2699 14.7403 32.0892 15.3572C31.9755 15.7497 31.0533 16.3775 30.075 17.0411C29.413 17.4913 28.6341 18.0241 27.8131 18.6596C27.5272 16.71 26.8127 14.8479 25.721 13.2074V13.1794C26.4532 12.089 26.3722 11.0857 26.2787 10.0249C26.2289 9.44541 26.6214 8.62291 27.0015 7.84402C27.6122 6.57288 28.3038 5.13193 27.6714 3.77667C26.9308 2.1965 26.4925 1.46651 26.4677 1.42524L26.4672 1.42443C26.3347 1.20519 26.0892 1.08019 25.834 1.10201C25.5787 1.12384 25.358 1.28869 25.2646 1.52724C25.1112 1.82953 24.8944 2.0952 24.629 2.30613C24.4667 1.86651 24.1368 1.50913 23.7115 1.31227C23.2968 1.13271 22.906 0.90248 22.5479 0.62685C22.5205 0.609166 22.4919 0.593545 22.4622 0.580117C22.4248 0.555209 22.3851 0.533828 22.3438 0.516248C22.3039 0.502818 22.2626 0.493934 22.2207 0.489766C22.1788 0.480483 22.1359 0.475783 22.093 0.475746C22.0509 0.478567 22.0092 0.485347 21.9684 0.495997C21.9258 0.504107 21.8841 0.5161 21.8437 0.531826C21.8042 0.552188 21.7667 0.576177 21.7316 0.603484C21.7028 0.618562 21.6752 0.635744 21.649 0.65489C21.6428 0.661121 21.6373 0.668521 21.6319 0.67592C21.6264 0.68332 21.621 0.690719 21.6147 0.69695C21.6085 0.703181 21.6054 0.703181 21.6033 0.703181C21.6011 0.703181 21.5999 0.703181 21.5976 0.709412C21.5951 0.715435 21.592 0.721178 21.5883 0.726548C21.2082 1.13157 20.9371 1.79674 20.8686 2.49462C20.1863 2.18307 19.3638 1.88086 18.3683 1.52724C18.1902 1.46401 17.9936 1.47864 17.8268 1.56754C17.6599 1.65644 17.5382 1.81143 17.4913 1.99458L16.9757 3.96672C16.8892 4.31598 16.866 4.67791 16.9072 5.03535C16.4975 4.98934 16.0827 5.03619 15.6936 5.17244C15.6302 5.19264 15.5657 5.20928 15.5005 5.22229C15.2649 5.10586 14.9831 5.13723 14.7788 5.30263C14.5746 5.46802 14.4853 5.73717 14.5502 5.99183C14.5536 6.00149 14.5562 6.01138 14.558 6.02142C14.6534 6.41071 14.7056 6.8093 14.7138 7.21001H14.5315C7.12959 7.21859 1.13151 13.2174 1.12378 20.6193C1.14601 22.0983 1.31191 23.5716 1.61915 25.0185C3.77744 34.0333 13.5023 44.198 13.9857 44.7032L13.9857 44.7032L13.9857 44.7032L13.991 44.7088C14.1354 44.8579 14.3341 44.9421 14.5417 44.9421C14.7493 44.9421 14.948 44.8579 15.0923 44.7088C15.1998 44.5982 15.9398 43.8255 17.0115 42.5902C17.0514 42.5686 17.0889 42.543 17.1237 42.5139C17.5287 42.101 18.817 40.9857 19.8887 40.8003C20.0134 40.7785 20.1863 40.7629 20.3997 40.7442C21.9138 40.6071 25.0512 40.3127 27.2321 37.5087C27.4128 37.2766 27.9751 36.3902 28.3864 35.7095C29.2837 34.2265 29.5859 33.7264 29.0562 33.2856C28.7042 32.9896 28.3069 33.0815 27.8754 33.5598C27.6082 33.8634 26.5538 34.0191 25.4174 34.1869L25.3285 34.2C24.6602 34.2997 23.8844 34.4197 23.0495 34.5848C24.654 32.0721 26.1183 29.3211 27.0046 26.6121C27.2944 26.1183 27.6511 25.6338 28.0561 25.3441C28.1143 25.302 28.1889 25.2569 28.2764 25.2039C28.3413 25.1647 28.4132 25.1212 28.4908 25.0714C29.7899 24.2926 32.4942 22.6678 33.2311 19.1908C33.2918 18.9042 33.4133 17.8621 33.4881 17.0692L33.4889 17.0607C33.6472 15.3428 33.7004 14.7649 33.0348 14.5954ZM30.8337 18.1549L31.0549 17.9992C30.2495 19.1317 29.2167 20.2221 28.2509 21.2315L27.9144 21.5867C27.9362 21.2315 27.9487 20.8935 27.9487 20.596V20.2844C28.8714 19.5233 29.8344 18.8124 30.8337 18.1549ZM17.3823 9.07934C16.9991 9.19911 16.6269 9.35182 16.27 9.53576C16.0161 9.66039 15.7513 9.78033 15.4833 9.88626C15.7248 10.1791 16.0379 10.5483 16.4305 10.9892C16.9991 11.6294 18.1487 11.5842 19.3669 11.5344C20.328 11.4954 21.3157 11.4596 22.1164 11.7899L21.6864 11.3225C21.5104 11.1278 21.3266 10.9253 21.1474 10.7321C19.9984 9.9658 18.7241 9.40643 17.3823 9.07934ZM25.1821 3.61622L25.2309 3.57376C25.4315 3.39933 25.6333 3.2238 25.8192 3.03361C25.9921 3.37165 26.2071 3.8125 26.4563 4.33903C26.8191 5.11753 26.3213 6.15281 25.7935 7.25044L25.7927 7.25207L25.7833 7.27171C25.3282 8.2205 24.8586 9.19954 24.9437 10.1402C24.996 10.568 25.0085 10.9998 24.9811 11.43C24.8487 11.1496 24.7833 10.7586 24.6057 9.63702L24.5799 9.47511C24.4935 8.93227 24.3846 8.24778 24.2334 7.36578C24.1461 6.86418 24.0495 6.42021 23.9405 6.02142V6.01052C23.7318 4.93254 24.2723 4.39511 25.1821 3.60999V3.61622ZM23.1678 2.53824C22.8781 2.40822 22.5967 2.26047 22.3251 2.09583V2.0896C22.1799 2.47845 22.1619 2.90337 22.2737 3.30311C22.5412 3.50896 22.7829 3.74642 22.9934 4.01034C23.1377 3.77691 23.3046 3.55828 23.4919 3.35763C23.4872 3.1115 23.4311 2.65663 23.1678 2.53824ZM18.2858 4.29852L18.6145 3.03984C19.8233 3.47914 20.6536 3.81873 21.2487 4.22531C21.3008 4.27955 21.3619 4.32435 21.4294 4.35772C22.0369 4.82505 22.364 5.37183 22.6117 6.22705V6.27067C22.6165 6.28077 22.6207 6.29118 22.6242 6.30182C22.7254 6.67257 22.8127 7.09629 22.8999 7.59633C23.065 8.55904 23.1803 9.28652 23.2691 9.84888C23.3096 10.1106 23.3454 10.3333 23.3797 10.5374C22.7765 10.007 22.1275 9.53105 21.4403 9.11516C21.2665 8.94358 21.0784 8.78723 20.8779 8.64783C19.9292 8.02161 17.8948 5.79243 18.2858 4.29229V4.29852ZM16.0909 6.45916L16.0192 6.47941L16.0161 6.46851C16.0521 6.74026 16.0729 7.01382 16.0784 7.28789C16.7364 7.36525 17.3878 7.49126 18.0272 7.66488H18.0412C17.7936 7.32433 17.5747 6.96376 17.3869 6.5869C16.714 6.27378 16.5052 6.33298 16.0909 6.45916ZM14.5456 43.0544C12.4332 40.7473 4.89671 32.1141 3.1224 24.6462C2.84252 23.3136 2.69021 21.9574 2.66753 20.596C2.67526 14.0391 7.98871 8.72566 14.5456 8.71793C14.5985 8.71793 14.6484 8.71793 14.7013 8.72572C14.5744 8.76319 14.4427 8.78208 14.3103 8.7818C14.0526 8.77448 13.8123 8.91147 13.6872 9.13697C13.5658 9.3623 13.5827 9.63702 13.7308 9.84576L13.7428 9.86196C13.8269 9.97624 14.3314 10.6624 15.4148 11.8818C16.4055 12.9984 17.9986 12.935 19.4067 12.879L19.4136 12.8787C20.2891 12.8414 21.1957 12.8055 21.7067 13.0828C22.4731 13.4956 23.2052 13.8897 24.1492 13.8897C24.2069 13.8897 24.2676 13.8897 24.3253 13.8804C25.558 15.6725 26.2703 17.771 26.3831 19.9433C24.6431 22.1522 24.8767 26.5545 24.9686 27.676L24.9556 27.7075C24.8041 28.0725 24.6521 28.4389 24.4795 28.8039C24.4982 27.9938 24.3876 27.2165 24.0542 26.5591C23.4345 25.3717 22.7431 24.2231 21.9839 23.1196C21.3297 22.1366 20.7112 21.2066 20.7549 20.8C20.8203 20.1598 20.6224 19.8031 20.166 19.7392C19.4857 19.6431 19.3172 20.2006 18.8233 21.8349L18.8154 21.8609C18.5864 22.6226 18.3045 23.6336 18.2531 23.9234C17.63 27.4206 19.5149 29.9442 20.4246 31.1561L20.4613 31.2053L20.4613 31.2053C20.5726 31.3545 20.6648 31.478 20.7253 31.5736C21.2082 32.34 21.311 33.6548 21.3125 34.4041C21.1391 34.6658 20.9652 34.9254 20.7907 35.183C18.5584 36.2298 16.9617 39.5011 16.3183 41.0231C15.5815 41.9063 14.9584 42.6026 14.5456 43.0544ZM22.1141 27.7448L22.1141 27.7449L22.1142 27.745L22.1142 27.7452L22.1143 27.7452C22.454 28.6151 22.7656 29.413 22.9918 30.142C23.2161 29.0235 23.2473 27.9378 22.861 27.1698C22.265 26.0295 21.6002 24.9267 20.8701 23.8673L20.7237 23.6445C21.0415 24.9998 21.5867 26.3987 22.0945 27.6947L22.1141 27.7448ZM19.5445 24.4795C19.9116 25.7371 20.3458 26.9742 20.8452 28.1854L20.8498 28.1973C21.1832 29.0486 21.5176 29.9025 21.7425 30.6607C21.7109 30.6164 21.6771 30.5702 21.641 30.5208L21.6409 30.5206L21.6408 30.5205C21.6022 30.4676 21.5608 30.4111 21.5166 30.3492C20.7439 29.3304 19.1862 27.243 19.5445 24.4795ZM19.8965 39.4419C20.0102 39.4279 20.1364 39.4154 20.2828 39.403C21.554 39.2861 24.1477 39.0431 25.9609 36.9277C24.7824 37.4991 23.5739 38.0067 22.3407 38.4481C21.4808 38.7721 20.61 39.1023 19.8965 39.4419ZM25.5185 35.535L25.7834 35.4945C24.5667 36.1628 23.1616 36.6971 21.8609 37.1878L21.0617 37.4916C21.3624 37.0772 21.663 36.6488 21.9621 36.2127C23.1346 35.923 24.3218 35.6968 25.5185 35.535ZM27.648 24.0044L27.7898 23.9187H27.7944C28.8896 23.2613 31.1265 21.9138 31.8244 19.2142C31.0117 20.2415 30.1443 21.2243 29.226 22.1584C28.6793 22.741 28.1356 23.3252 27.6683 23.872C27.6645 23.8931 27.6614 23.915 27.6584 23.9367C27.6552 23.9598 27.652 23.9827 27.648 24.0044Z" fill="#4BC2C1"/>
</svg>
