<svg width="12" height="12" viewBox="0 0 12 12" fill="none" xmlns="http://www.w3.org/2000/svg">
<mask id="path-1-inside-1" fill="white">
<path fill-rule="evenodd" clip-rule="evenodd" d="M2.79014 5.36932C2.39962 4.9788 1.76645 4.9788 1.37593 5.36932C0.985406 5.75985 0.985406 6.39301 1.37593 6.78354L5.28277 10.6904C5.67329 11.0809 6.30646 11.0809 6.69698 10.6904L10.6038 6.78354C10.9943 6.39301 10.9943 5.75985 10.6038 5.36932C10.2133 4.9788 9.58013 4.9788 9.1896 5.36932L5.98987 8.56905L2.79014 5.36932Z"/>
</mask>
<path d="M5.98987 8.56905L4.57566 9.98327L5.98987 11.3975L7.40409 9.98327L5.98987 8.56905ZM2.79014 6.78354C2.39962 7.17406 1.76645 7.17406 1.37593 6.78354L4.20436 3.95511C3.03278 2.78354 1.13329 2.78354 -0.0382835 3.95511L2.79014 6.78354ZM2.79014 5.36932C3.18067 5.75985 3.18067 6.39301 2.79014 6.78354L-0.0382835 3.95511C-1.20986 5.12668 -1.20986 7.02618 -0.0382835 8.19775L2.79014 5.36932ZM6.69698 9.27616L2.79014 5.36932L-0.0382835 8.19775L3.86855 12.1046L6.69698 9.27616ZM5.28277 9.27616C5.67329 8.88564 6.30646 8.88564 6.69698 9.27616L3.86855 12.1046C5.04013 13.2762 6.93962 13.2762 8.11119 12.1046L5.28277 9.27616ZM9.1896 5.36932L5.28277 9.27616L8.11119 12.1046L12.018 8.19775L9.1896 5.36932ZM9.1896 6.78354C8.79908 6.39301 8.79908 5.75985 9.1896 5.36932L12.018 8.19775C13.1896 7.02618 13.1896 5.12668 12.018 3.95511L9.1896 6.78354ZM10.6038 6.78354C10.2133 7.17406 9.58013 7.17406 9.1896 6.78354L12.018 3.95511C10.8465 2.78354 8.94696 2.78354 7.77539 3.95511L10.6038 6.78354ZM7.40409 9.98327L10.6038 6.78354L7.77539 3.95511L4.57566 7.15484L7.40409 9.98327ZM1.37593 6.78354L4.57566 9.98327L7.40409 7.15484L4.20436 3.95511L1.37593 6.78354Z" fill="#415160" mask="url(#path-1-inside-1)"/>
</svg>
