<svg width="40" height="40" viewBox="0 0 40 40" fill="none" xmlns="http://www.w3.org/2000/svg">
<g clip-path="url(#clip0)">
<circle cx="15" cy="25" r="15" fill="#479CF5"/>
<rect y="10" width="30" height="30" fill="#D8D8D8" fill-opacity="0.01"/>
<path fill-rule="evenodd" clip-rule="evenodd" d="M26.1215 22.933V22.3152C26.1215 21.8033 25.7065 21.3884 25.1947 21.3884H22.5942L18.4708 15.7187C18.0694 15.1667 17.2965 15.0447 16.7446 15.4461C16.1927 15.8475 16.0706 16.6204 16.4721 17.1723L19.5383 21.3884H10.4617L13.528 17.1723C13.9294 16.6204 13.8073 15.8476 13.2554 15.4462C12.7034 15.0447 11.9306 15.1668 11.5292 15.7187L7.40578 21.3884H4.80533C4.29347 21.3884 3.87854 21.8033 3.87854 22.3152V22.933C3.87854 23.4449 4.29347 23.8598 4.80533 23.8598H5.11426L6.1226 30.9184C6.25309 31.8315 7.03514 32.5098 7.95757 32.5098H22.0424C22.9649 32.5098 23.7469 31.8315 23.8774 30.9184L24.8857 23.8598H25.1947C25.7065 23.8598 26.1215 23.4449 26.1215 22.933ZM15.9268 24.7866V29.1116C15.9268 29.6235 15.5119 30.0384 15 30.0384C14.4881 30.0384 14.0732 29.6235 14.0732 29.1116V24.7866C14.0732 24.2747 14.4881 23.8598 15 23.8598C15.5119 23.8598 15.9268 24.2747 15.9268 24.7866ZM20.2518 29.1116V24.7866C20.2518 24.2747 19.8369 23.8598 19.325 23.8598C18.8132 23.8598 18.3982 24.2747 18.3982 24.7866V29.1116C18.3982 29.6235 18.8132 30.0384 19.325 30.0384C19.8369 30.0384 20.2518 29.6235 20.2518 29.1116ZM11.6018 24.7866V29.1116C11.6018 29.6235 11.1868 30.0384 10.675 30.0384C10.1631 30.0384 9.7482 29.6235 9.7482 29.1116V24.7866C9.7482 24.2747 10.1631 23.8598 10.675 23.8598C11.1868 23.8598 11.6018 24.2747 11.6018 24.7866Z" fill="white"/>
<circle cx="30" cy="10" r="10" fill="white"/>
<path d="M32.6224 10.364L31.6264 10.34L31.6864 11.96L31.6024 12.068L30.3544 12.152L30.2704 12.056L30.3064 10.328H28.3864L27.3424 10.364L27.2344 10.22V9.212L30.1744 4.928H31.6384L31.6024 9.104H32.5984L32.6944 9.248L32.6224 10.364ZM28.6024 9.104H30.3304V6.74H30.2224L28.6024 9.104Z" fill="#F57A71"/>
</g>
<defs>
<clipPath id="clip0">
<rect width="40" height="40" fill="white"/>
</clipPath>
</defs>
</svg>
