<svg width="31" height="30" viewBox="0 0 31 30" fill="none" xmlns="http://www.w3.org/2000/svg">
<g opacity="0.2">
<g clip-path="url(#clip0)">
<rect x="0.989868" width="30" height="30" fill="#D8D8D8" fill-opacity="0.01"/>
<g clip-path="url(#clip1)">
<rect x="10.9899" y="7" width="11" height="16" rx="2" stroke="#415160" stroke-width="2"/>
<path d="M16.0877 11.2097L16.1819 11.2929L19.1819 14.2929C19.2098 14.3208 19.2361 14.3503 19.2605 14.3813L19.1819 14.2929C19.2173 14.3283 19.2495 14.3657 19.2785 14.4047L19.3502 14.5159L19.3996 14.6187L19.4368 14.726L19.4596 14.8253L19.4731 14.9406L19.472 15.0752L19.4596 15.1747L19.4327 15.288L19.3996 15.3812L19.3666 15.453L19.3191 15.5361L19.2551 15.6254L19.1819 15.7071L16.1819 18.7071C15.7914 19.0976 15.1583 19.0976 14.7677 18.7071C14.4072 18.3466 14.3795 17.7794 14.6845 17.3871L14.7677 17.2929L16.0595 16H3.50666C2.95437 16 2.50666 15.5523 2.50666 15C2.50666 14.4872 2.8927 14.0645 3.39004 14.0067L3.50666 14H16.0605L14.7677 12.7071C14.3772 12.3166 14.3772 11.6834 14.7677 11.2929C15.0982 10.9624 15.6023 10.9116 15.9862 11.1404L16.0877 11.2097Z" fill="#415160"/>
</g>
</g>
</g>
<defs>
<clipPath id="clip0">
<rect width="30" height="30" fill="white" transform="translate(0.989868)"/>
</clipPath>
<clipPath id="clip1">
<rect width="21" height="18" fill="white" transform="translate(1.98987 6)"/>
</clipPath>
</defs>
</svg>
