<svg width="31" height="30" viewBox="0 0 31 30" fill="none" xmlns="http://www.w3.org/2000/svg">
<g clip-path="url(#clip0)">
<rect x="0.989746" width="30" height="30" fill="#D8D8D8" fill-opacity="0.01"/>
<path fill-rule="evenodd" clip-rule="evenodd" d="M30.9897 15C30.9897 23.2843 24.274 30 15.9897 30C7.70547 30 0.989746 23.2843 0.989746 15C0.989746 6.71573 7.70547 0 15.9897 0C24.274 0 30.9897 6.71573 30.9897 15ZM7.48978 14.9401C7.47618 10.4547 11.0368 6.72317 15.5503 6.51067V6.50982C20.5101 6.27522 24.5892 10.2753 24.4345 15.1841C24.2909 19.7613 20.4455 23.3976 15.8325 23.3271C14.5685 23.3096 13.3244 23.0099 12.1911 22.4499L7.91223 23.4563C7.80296 23.4826 7.6878 23.4513 7.60687 23.3733C7.52593 23.2953 7.49044 23.1814 7.51273 23.0712L8.41203 18.7354C7.80813 17.5613 7.49202 16.2604 7.48978 14.9401ZM15.9643 21.5021C17.7225 21.5079 19.4108 20.8137 20.6563 19.5726V19.5735C21.899 18.3401 22.6002 16.6588 22.6002 14.9146C22.6038 13.164 21.9032 11.4854 20.6563 10.2566C19.4034 9.01222 17.7374 8.32712 15.9643 8.32712C14.2071 8.32766 12.5211 9.02131 11.2723 10.2575C10.0194 11.501 9.32918 13.156 9.32918 14.9155C9.32598 15.9554 9.57322 16.9807 10.05 17.9049L10.3441 18.4761L9.79158 21.1375L12.4155 20.5204L13.0114 20.8153C13.9291 21.2701 14.94 21.5053 15.9643 21.5021ZM18.4361 16.2712L20.0774 16.7387C20.2627 16.7905 20.4123 16.9271 20.4807 17.1068C20.5491 17.2866 20.5282 17.4881 20.4243 17.6499C20.1038 18.1523 19.5938 18.7668 18.9563 18.9198C17.8335 19.191 16.1071 18.9266 13.9524 16.93C12.0875 15.2011 11.5945 13.762 11.7109 12.6205C11.7764 11.9719 12.3204 11.388 12.7785 11.0029C12.9259 10.8788 13.1229 10.831 13.3108 10.8737C13.4987 10.9165 13.6556 11.0449 13.7348 11.2205L14.425 12.7709C14.5158 12.9748 14.4867 13.2122 14.3493 13.388L13.9991 13.8385C13.8507 14.0277 13.8318 14.2879 13.9515 14.4964C14.3689 15.2181 16.0026 16.6597 16.7786 16.9716C17.003 17.0611 17.2591 17.0075 17.4289 16.8356L17.8301 16.4293C17.988 16.2699 18.2204 16.2093 18.4361 16.2712Z" fill="#02D54C"/>
</g>
<defs>
<clipPath id="clip0">
<rect width="30" height="30" fill="white" transform="translate(0.989746)"/>
</clipPath>
</defs>
</svg>
