<svg width="110" height="120" viewBox="0 0 110 120" fill="none" xmlns="http://www.w3.org/2000/svg">
<rect opacity="0.1" width="110" height="120" rx="8" fill="#415160"/>
<path fill-rule="evenodd" clip-rule="evenodd" d="M56.6132 30.0864C54.3751 29.8454 52.0825 30.1097 49.9596 30.8629C47.05 31.8878 44.4751 33.8412 42.6986 36.3725C41.0359 38.723 40.0835 41.5734 40.0072 44.4566C39.9376 46.6791 40.376 48.9159 41.2874 50.9426C42.2841 53.174 43.8446 55.1445 45.7711 56.6378C45.8019 56.6615 45.8325 56.6856 45.8631 56.7098C46.0026 56.8198 46.1427 56.9304 46.3076 57C46.8912 55.2383 47.0036 53.3438 46.8298 51.5034C46.7616 50.668 46.6178 49.8389 46.388 49.0337C46.161 48.2367 46.0301 47.4 46.129 46.5716C46.1716 46.0985 46.3083 45.6466 46.445 45.1946C46.5336 44.9015 46.6223 44.6083 46.6853 44.3094C46.8259 43.6871 46.8538 43.051 46.8818 42.4149C46.9123 41.7192 46.9428 41.0235 47.1209 40.3464C47.2163 39.9794 47.384 39.6296 47.6315 39.342C47.7569 39.1931 47.8968 39.0557 48.0368 38.9183C48.2934 38.6663 48.5501 38.4143 48.7168 38.0918C48.8831 37.772 48.8259 37.3982 48.7379 37.0647C48.6009 36.5067 48.5866 35.8864 48.8613 35.3667C49.1558 34.7998 49.6548 34.3657 50.188 34.0302C50.6522 33.7584 51.2235 33.553 51.7573 33.7262C52.09 33.8282 52.2665 34.1945 52.2324 34.5266C52.1863 35.1707 51.7922 35.7151 51.4269 36.2198L51.4219 36.2267L51.3905 36.2739C51.0897 36.7265 50.7439 37.2468 50.8697 37.8131C51.017 38.2056 51.3389 38.4644 51.6575 38.7205C51.7769 38.8165 51.8957 38.912 52.0047 39.014C52.439 39.3844 52.6919 39.9082 52.9251 40.4183C53.1942 41.0198 53.4071 41.6436 53.6198 42.2672C53.6829 42.4522 53.746 42.6372 53.8106 42.8216C53.9599 43.2604 54.3035 43.6192 54.7268 43.8007C55.4256 44.1026 56.2048 44.1142 56.9527 44.0923C57.8198 44.0218 58.676 43.713 59.3694 43.181C59.6857 42.9215 60.0279 42.5723 59.9809 42.1259C59.9806 41.8755 59.8959 41.6402 59.8116 41.4056C59.7041 41.1067 59.5971 40.8091 59.6659 40.4834C59.8186 39.8007 60.2038 39.1818 60.6939 38.6909C61.1091 38.2753 61.6715 37.9706 62.2701 37.9836C62.5898 37.9863 62.9402 38.1089 63.1072 38.4012C63.2667 38.682 63.2074 39.0291 63.0779 39.3091C62.938 39.6089 62.775 39.8973 62.612 40.1856L62.612 40.1856L62.612 40.1856C62.3804 40.5952 62.149 41.0047 61.9838 41.4467C61.8972 41.674 61.8665 42.0061 62.1078 42.1478C62.3655 42.2403 62.645 42.1492 62.887 42.0499C63.6103 41.7363 64.2239 41.2228 64.8068 40.7011C65.22 40.3302 65.5013 39.8482 65.779 39.3723L65.7791 39.3723L65.7794 39.3717C65.8076 39.3234 65.8358 39.2751 65.8641 39.227C66.0652 38.8928 66.4217 38.5875 66.8362 38.645C67.2289 38.6826 67.4764 39.088 67.4859 39.457C67.5139 40.0322 67.2091 40.5518 66.8737 40.9928C66.4444 41.5511 65.9655 42.0674 65.4866 42.5836C64.8984 43.2176 64.3105 43.8513 63.8148 44.5627C63.5531 44.9578 63.2852 45.3973 63.3172 45.891C63.3615 48.4367 64.2089 50.9111 65.4346 53.1185C65.4793 53.1935 65.5235 53.2693 65.5678 53.3451L65.5679 53.3453L65.568 53.3455C65.8166 53.7714 66.0677 54.2017 66.4292 54.5392C68.1826 52.5023 69.3688 49.9758 69.8017 47.3179C70.3437 44.0711 69.7663 40.647 68.1724 37.7686C66.9883 35.6105 65.2601 33.7584 63.1993 32.4219C61.2277 31.1374 58.9508 30.3302 56.6132 30.0864ZM56.1902 46.1403C55.6804 46.0286 55.1462 45.9383 54.6295 46.0535C54.0345 46.1674 53.6108 46.6747 53.4227 47.2208C53.0825 48.1636 53.0498 49.1716 53.0176 50.165L53.0176 50.1654C53.0135 50.2929 53.0093 50.4202 53.0046 50.5471C52.999 51.2647 52.9955 51.9823 53.0129 52.6992C53.0205 53.1065 53.0223 53.5144 53.0241 53.9224V53.9225V53.9225C53.0296 55.1853 53.0352 56.4497 53.2101 57.7022C53.3066 58.2796 53.415 58.8875 53.7667 59.3733C54.11 59.7745 54.647 60.0208 55.1798 59.9986C56.4412 59.9806 57.711 59.8591 58.9325 59.5357C59.3856 59.3254 59.91 59.0027 59.9596 58.4559C60.0249 57.9322 59.9977 57.4033 59.9706 56.8771L59.9631 56.7299C59.8139 54.7962 59.5187 52.8787 59.2237 50.962C59.1388 50.4099 59.0538 49.8579 58.9723 49.3056C58.8598 48.5887 58.671 47.8496 58.2018 47.2743C57.7089 46.6545 56.9495 46.311 56.1902 46.1403ZM49.467 52.2921C49.5468 52.1546 49.6691 51.9674 49.8891 52.0049C50.0966 52.1005 50.1907 52.2925 50.2761 52.4668L50.281 52.4767C50.5321 53.0563 50.6398 53.6699 50.7464 54.2771L50.7472 54.2815C50.9152 55.4001 51.0252 56.5278 50.995 57.6561L50.9877 57.7543C50.9559 58.1854 50.922 58.6462 50.5946 59C50.374 58.9367 50.1551 58.8693 49.9363 58.8019L49.9363 58.8019C49.8295 58.769 49.7227 58.7361 49.6157 58.7037C49.2866 58.1841 49.1882 57.5915 49.1022 57.0158C48.9652 55.9004 48.9659 54.7733 49.1046 53.6586L49.1098 53.6246C49.1793 53.1733 49.2502 52.7127 49.467 52.2921ZM61.9905 52.1573C61.8346 52.0324 61.6147 51.9475 61.423 52.0373C61.1696 52.2241 61.1165 52.5587 61.0688 52.8598C61.0624 52.9002 61.056 52.9401 61.0494 52.9789C60.9425 53.9709 61.0204 54.9756 61.1755 55.9578C61.2872 56.5837 61.4189 57.2186 61.705 57.789C61.7884 58.0114 62.0828 58.0556 62.2642 57.9328C62.7516 57.6431 63.2191 57.3196 63.6734 56.9794C64.0912 56.6777 64.0395 56.0652 63.8947 55.6253C63.6389 54.7595 63.2652 53.9309 62.8054 53.1592C62.5765 52.7937 62.3331 52.4225 61.9905 52.1573Z" fill="#EF473D"/>
<path d="M42.7938 74.56C43.9351 76.1493 45.2525 77.8133 46.7458 79.552L46.7138 79.792C46.1165 79.9413 45.4125 80.064 44.6018 80.16L44.3458 80.032C42.9485 78.176 41.7058 76.3947 40.6178 74.688L40.5858 76.736L40.6658 80H38.5058L38.6178 76.928L38.5058 69.696H40.6978L40.6178 74.48L43.5138 70.688L44.1058 69.696H46.4418L42.7938 74.56ZM50.3493 72.416C51.1706 72.416 51.8106 72.6027 52.2693 72.976C52.7386 73.3387 52.9733 73.8507 52.9733 74.512C52.9733 74.704 52.9413 75.312 52.8773 76.336C52.8666 76.6347 52.8506 76.944 52.8293 77.264C52.808 77.5733 52.7973 77.84 52.7973 78.064C52.7973 78.2453 52.824 78.3733 52.8773 78.448C52.9306 78.512 53.0266 78.544 53.1653 78.544C53.272 78.544 53.4106 78.5227 53.5813 78.48L53.7413 78.608L53.5493 79.728C53.208 79.952 52.8186 80.0853 52.3813 80.128C52.0613 80.096 51.7946 79.984 51.5813 79.792C51.368 79.5893 51.224 79.312 51.1493 78.96H51.0373C50.504 79.5253 49.9546 79.92 49.3893 80.144C48.6213 80.1333 48.0186 79.9307 47.5813 79.536C47.144 79.1413 46.9253 78.6027 46.9253 77.92C46.9253 77.3867 47.0586 76.9707 47.3253 76.672C47.6026 76.3627 48.0186 76.1547 48.5733 76.048L51.0213 75.584V74.928C51.0213 74.2347 50.68 73.888 49.9973 73.888C49.6666 73.888 49.3146 73.9627 48.9413 74.112C48.5786 74.2613 48.168 74.496 47.7093 74.816L47.5493 74.72L47.3093 73.312C47.768 73.024 48.2586 72.8053 48.7813 72.656C49.304 72.496 49.8266 72.416 50.3493 72.416ZM49.3093 77.024C49.1386 77.0667 49.0106 77.1413 48.9253 77.248C48.8506 77.344 48.8133 77.4933 48.8133 77.696C48.8133 77.9733 48.888 78.192 49.0373 78.352C49.1866 78.5013 49.3946 78.576 49.6613 78.576C50.0773 78.576 50.5146 78.3307 50.9733 77.84L51.0053 76.656L49.3093 77.024ZM57.6204 72.432C58.3458 72.432 59.0284 72.5547 59.6684 72.8L59.3804 74.368L59.1244 74.448C58.8151 74.2453 58.5058 74.0907 58.1964 73.984C57.8871 73.8773 57.6151 73.824 57.3804 73.824C57.1244 73.824 56.9218 73.8933 56.7724 74.032C56.6231 74.16 56.5484 74.32 56.5484 74.512C56.5484 74.736 56.6444 74.9173 56.8364 75.056C57.0391 75.1947 57.3538 75.3493 57.7804 75.52C58.2071 75.6907 58.5591 75.856 58.8364 76.016C59.1138 76.176 59.3484 76.4 59.5404 76.688C59.7431 76.9653 59.8444 77.312 59.8444 77.728C59.8444 78.1547 59.7324 78.5547 59.5084 78.928C59.2951 79.2907 58.9644 79.5893 58.5164 79.824C58.0684 80.048 57.5191 80.16 56.8684 80.16C56.1004 80.16 55.3058 80 54.4844 79.68L54.7244 78.016L54.9324 77.888C55.2631 78.1653 55.6311 78.3893 56.0364 78.56C56.4418 78.72 56.7991 78.8 57.1084 78.8C57.3964 78.8 57.6204 78.7307 57.7804 78.592C57.9404 78.4427 58.0204 78.2667 58.0204 78.064C58.0204 77.84 57.9191 77.6587 57.7164 77.52C57.5244 77.3813 57.2151 77.2267 56.7884 77.056C56.3511 76.864 55.9938 76.6933 55.7164 76.544C55.4391 76.384 55.1991 76.16 54.9964 75.872C54.8044 75.584 54.7084 75.2267 54.7084 74.8C54.7084 74.1067 54.9698 73.5413 55.4924 73.104C56.0151 72.656 56.7244 72.432 57.6204 72.432ZM65.2011 72.464C66.1291 72.464 66.8437 72.7787 67.3451 73.408C67.8464 74.0373 68.0971 74.928 68.0971 76.08C68.0971 77.3813 67.7717 78.3893 67.1211 79.104C66.4811 79.808 65.5744 80.16 64.4011 80.16C64.0597 80.16 63.7024 80.128 63.3291 80.064L63.3771 82.96H61.2651L61.3771 76.928L61.2811 72.704L63.3131 72.528L63.2971 73.616H63.4091C63.7077 73.328 63.9957 73.0987 64.2731 72.928C64.5504 72.7467 64.8597 72.592 65.2011 72.464ZM64.4171 78.768C64.9717 78.768 65.3931 78.5707 65.6811 78.176C65.9691 77.7813 66.1131 77.2 66.1131 76.432C66.1131 75.6853 65.9904 75.1253 65.7451 74.752C65.5104 74.368 65.1584 74.176 64.6891 74.176C64.2304 74.176 63.7664 74.4053 63.2971 74.864L63.2811 76.72L63.3131 78.528C63.6971 78.688 64.0651 78.768 64.4171 78.768ZM69.6903 76.928L69.6103 72.704L71.7063 72.528L71.6103 76.72L71.7063 80H69.5783L69.6903 76.928ZM70.6983 68.912C71.029 68.912 71.285 69.008 71.4663 69.2C71.6583 69.392 71.7543 69.6587 71.7543 70C71.7543 70.3627 71.653 70.6507 71.4503 70.864C71.2476 71.0773 70.9703 71.184 70.6183 71.184C70.2663 71.184 69.9943 71.088 69.8023 70.896C69.621 70.704 69.5303 70.432 69.5303 70.08C69.5303 69.728 69.6316 69.4453 69.8343 69.232C70.0476 69.0187 70.3356 68.912 70.6983 68.912Z" fill="#415160"/>
</svg>
