<svg width="110" height="120" viewBox="0 0 110 120" fill="none" xmlns="http://www.w3.org/2000/svg">
<rect opacity="0.1" width="110" height="120" rx="8" fill="#415160"/>
<path fill-rule="evenodd" clip-rule="evenodd" d="M42.8125 33.75H67.1875C68.7345 33.75 70 35.0155 70 36.5625V53.4375C70 54.9845 68.7345 56.25 67.1875 56.25H42.8125C41.2655 56.25 40 54.9845 40 53.4375V36.5625C40 35.0155 41.2655 33.75 42.8125 33.75ZM67.1875 35.625H42.8125C42.3045 35.625 41.875 36.0545 41.875 36.5625V39.375H68.125V36.5625C68.125 36.0545 67.6955 35.625 67.1875 35.625ZM67.1875 54.375H42.8125C42.3045 54.375 41.875 53.9455 41.875 53.4375V45H68.125V53.4375C68.125 53.9455 67.6955 54.375 67.1875 54.375ZM45.625 48.75H43.75V52.5H45.625V48.75ZM47.5 48.75H49.375V52.5H47.5V48.75ZM53.125 48.75H51.25V52.5H53.125V48.75Z" fill="#415160"/>
<path d="M36.2083 69.552C37.6589 69.552 38.7736 69.9947 39.5523 70.88C40.3416 71.7547 40.7363 73.0027 40.7363 74.624C40.7363 76.3947 40.3096 77.76 39.4563 78.72C38.6029 79.68 37.3976 80.16 35.8403 80.16C34.4003 80.16 33.2856 79.712 32.4963 78.816C31.7176 77.9093 31.3283 76.6293 31.3283 74.976C31.3283 73.2373 31.7496 71.8987 32.5923 70.96C33.4456 70.0213 34.6509 69.552 36.2083 69.552ZM36.0163 71.296C35.1629 71.296 34.5443 71.5627 34.1603 72.096C33.7763 72.6293 33.5843 73.4987 33.5843 74.704C33.5843 76.08 33.7709 77.0613 34.1443 77.648C34.5283 78.2347 35.1576 78.528 36.0323 78.528C36.8856 78.528 37.5043 78.2613 37.8883 77.728C38.2723 77.184 38.4643 76.2987 38.4643 75.072C38.4643 73.7173 38.2723 72.752 37.8883 72.176C37.5149 71.5893 36.8909 71.296 36.0163 71.296ZM48.8321 77.04L48.9121 80H46.8001L46.8961 77.264L46.8481 74.048H44.4641L44.3841 77.04L44.4801 80H42.3521L42.4641 77.264L42.3841 72.56H48.9121L48.8321 77.04ZM56.9254 76.72L57.0054 80H54.8934L54.9894 76.928L54.9414 73.968H53.5974L53.5494 74.384C53.368 75.8987 53.1707 77.056 52.9574 77.856C52.7547 78.656 52.4987 79.232 52.1894 79.584C51.88 79.9253 51.464 80.1227 50.9414 80.176H50.4614L50.1574 78.544C50.5414 78.4267 50.84 78.224 51.0534 77.936C51.2667 77.648 51.4427 77.2107 51.5814 76.624C51.72 76.0267 51.848 75.1627 51.9654 74.032L52.1254 72.592L52.1094 72.56H57.0214L56.9254 76.72ZM61.9029 72.416C62.7242 72.416 63.3642 72.6027 63.8229 72.976C64.2922 73.3387 64.5269 73.8507 64.5269 74.512C64.5269 74.704 64.4949 75.312 64.4309 76.336C64.4202 76.6347 64.4042 76.944 64.3829 77.264C64.3615 77.5733 64.3509 77.84 64.3509 78.064C64.3509 78.2453 64.3775 78.3733 64.4309 78.448C64.4842 78.512 64.5802 78.544 64.7189 78.544C64.8255 78.544 64.9642 78.5227 65.1349 78.48L65.2949 78.608L65.1029 79.728C64.7615 79.952 64.3722 80.0853 63.9349 80.128C63.6149 80.096 63.3482 79.984 63.1349 79.792C62.9215 79.5893 62.7775 79.312 62.7029 78.96H62.5909C62.0575 79.5253 61.5082 79.92 60.9429 80.144C60.1749 80.1333 59.5722 79.9307 59.1349 79.536C58.6975 79.1413 58.4789 78.6027 58.4789 77.92C58.4789 77.3867 58.6122 76.9707 58.8789 76.672C59.1562 76.3627 59.5722 76.1547 60.1269 76.048L62.5749 75.584V74.928C62.5749 74.2347 62.2335 73.888 61.5509 73.888C61.2202 73.888 60.8682 73.9627 60.4949 74.112C60.1322 74.2613 59.7215 74.496 59.2629 74.816L59.1029 74.72L58.8629 73.312C59.3215 73.024 59.8122 72.8053 60.3349 72.656C60.8575 72.496 61.3802 72.416 61.9029 72.416ZM60.8629 77.024C60.6922 77.0667 60.5642 77.1413 60.4789 77.248C60.4042 77.344 60.3669 77.4933 60.3669 77.696C60.3669 77.9733 60.4415 78.192 60.5909 78.352C60.7402 78.5013 60.9482 78.576 61.2149 78.576C61.6309 78.576 62.0682 78.3307 62.5269 77.84L62.5589 76.656L60.8629 77.024ZM71.8196 72.704L71.6916 74.08L70.2196 74.032H69.6756L69.6116 76.72L69.7076 80H67.5956L67.6916 76.928L67.6436 74.032H67.0676L65.5956 74.08L65.4836 73.936L65.5796 72.56H71.6916L71.8196 72.704ZM75.6216 72.416C76.443 72.416 77.083 72.6027 77.5416 72.976C78.011 73.3387 78.2456 73.8507 78.2456 74.512C78.2456 74.704 78.2136 75.312 78.1496 76.336C78.139 76.6347 78.123 76.944 78.1016 77.264C78.0803 77.5733 78.0696 77.84 78.0696 78.064C78.0696 78.2453 78.0963 78.3733 78.1496 78.448C78.203 78.512 78.299 78.544 78.4376 78.544C78.5443 78.544 78.683 78.5227 78.8536 78.48L79.0136 78.608L78.8216 79.728C78.4803 79.952 78.091 80.0853 77.6536 80.128C77.3336 80.096 77.067 79.984 76.8536 79.792C76.6403 79.5893 76.4963 79.312 76.4216 78.96H76.3096C75.7763 79.5253 75.227 79.92 74.6616 80.144C73.8936 80.1333 73.291 79.9307 72.8536 79.536C72.4163 79.1413 72.1976 78.6027 72.1976 77.92C72.1976 77.3867 72.331 76.9707 72.5976 76.672C72.875 76.3627 73.291 76.1547 73.8456 76.048L76.2936 75.584V74.928C76.2936 74.2347 75.9523 73.888 75.2696 73.888C74.939 73.888 74.587 73.9627 74.2136 74.112C73.851 74.2613 73.4403 74.496 72.9816 74.816L72.8216 74.72L72.5816 73.312C73.0403 73.024 73.531 72.8053 74.0536 72.656C74.5763 72.496 75.099 72.416 75.6216 72.416ZM74.5816 77.024C74.411 77.0667 74.283 77.1413 74.1976 77.248C74.123 77.344 74.0856 77.4933 74.0856 77.696C74.0856 77.9733 74.1603 78.192 74.3096 78.352C74.459 78.5013 74.667 78.576 74.9336 78.576C75.3496 78.576 75.787 78.3307 76.2456 77.84L76.2776 76.656L74.5816 77.024ZM32.9946 96.928L32.9306 92.704L35.0266 92.528L34.9466 96.72L35.0106 100H32.8986L32.9946 96.928ZM37.0746 95.92C37.672 96.8587 38.5413 98.1013 39.6826 99.648V99.872C39.3093 99.9573 38.9093 100.021 38.4826 100.064C38.0666 100.117 37.8106 100.149 37.7146 100.16L37.4906 100.064C36.5306 98.6987 35.7146 97.3813 35.0426 96.112V95.968L36.9306 93.328L37.3146 92.56H39.5226L37.0746 95.92ZM43.4341 92.416C44.2555 92.416 44.8955 92.6027 45.3541 92.976C45.8235 93.3387 46.0581 93.8507 46.0581 94.512C46.0581 94.704 46.0261 95.312 45.9621 96.336C45.9515 96.6347 45.9355 96.944 45.9141 97.264C45.8928 97.5733 45.8821 97.84 45.8821 98.064C45.8821 98.2453 45.9088 98.3733 45.9621 98.448C46.0155 98.512 46.1115 98.544 46.2501 98.544C46.3568 98.544 46.4955 98.5227 46.6661 98.48L46.8261 98.608L46.6341 99.728C46.2928 99.952 45.9035 100.085 45.4661 100.128C45.1461 100.096 44.8795 99.984 44.6661 99.792C44.4528 99.5893 44.3088 99.312 44.2341 98.96H44.1221C43.5888 99.5253 43.0395 99.92 42.4741 100.144C41.7061 100.133 41.1035 99.9307 40.6661 99.536C40.2288 99.1413 40.0101 98.6027 40.0101 97.92C40.0101 97.3867 40.1435 96.9707 40.4101 96.672C40.6875 96.3627 41.1035 96.1547 41.6581 96.048L44.1061 95.584V94.928C44.1061 94.2347 43.7648 93.888 43.0821 93.888C42.7515 93.888 42.3995 93.9627 42.0261 94.112C41.6635 94.2613 41.2528 94.496 40.7941 94.816L40.6341 94.72L40.3941 93.312C40.8528 93.024 41.3435 92.8053 41.8661 92.656C42.3888 92.496 42.9115 92.416 43.4341 92.416ZM42.3941 97.024C42.2235 97.0667 42.0955 97.1413 42.0101 97.248C41.9355 97.344 41.8981 97.4933 41.8981 97.696C41.8981 97.9733 41.9728 98.192 42.1221 98.352C42.2715 98.5013 42.4795 98.576 42.7461 98.576C43.1621 98.576 43.5995 98.3307 44.0581 97.84L44.0901 96.656L42.3941 97.024ZM52.1163 92.464C53.0443 92.464 53.7589 92.7787 54.2603 93.408C54.7616 94.0373 55.0123 94.928 55.0123 96.08C55.0123 97.3813 54.6869 98.3893 54.0363 99.104C53.3963 99.808 52.4896 100.16 51.3163 100.16C50.9749 100.16 50.6176 100.128 50.2443 100.064L50.2923 102.96H48.1803L48.2923 96.928L48.1963 92.704L50.2283 92.528L50.2123 93.616H50.3243C50.6229 93.328 50.9109 93.0987 51.1883 92.928C51.4656 92.7467 51.7749 92.592 52.1163 92.464ZM51.3323 98.768C51.8869 98.768 52.3083 98.5707 52.5963 98.176C52.8843 97.7813 53.0283 97.2 53.0283 96.432C53.0283 95.6853 52.9056 95.1253 52.6603 94.752C52.4256 94.368 52.0736 94.176 51.6043 94.176C51.1456 94.176 50.6816 94.4053 50.2123 94.864L50.1963 96.72L50.2283 98.528C50.6123 98.688 50.9803 98.768 51.3323 98.768ZM61.6946 92.704L61.5666 94.08L60.0946 94.032H59.5506L59.4866 96.72L59.5826 100H57.4706L57.5666 96.928L57.5186 94.032H56.9426L55.4706 94.08L55.3586 93.936L55.4546 92.56H61.5666L61.6946 92.704ZM65.6105 92.416C66.6985 92.416 67.5305 92.736 68.1065 93.376C68.6825 94.016 68.9705 94.9387 68.9705 96.144C68.9705 97.4453 68.6612 98.4427 68.0425 99.136C67.4238 99.8187 66.5332 100.16 65.3705 100.16C64.2825 100.16 63.4505 99.84 62.8745 99.2C62.2985 98.56 62.0105 97.6373 62.0105 96.432C62.0105 95.1307 62.3198 94.1387 62.9385 93.456C63.5572 92.7627 64.4478 92.416 65.6105 92.416ZM65.4665 93.856C64.9545 93.856 64.5812 94.0267 64.3465 94.368C64.1225 94.7093 64.0105 95.2587 64.0105 96.016C64.0105 96.9973 64.1278 97.696 64.3625 98.112C64.5972 98.528 64.9812 98.736 65.5145 98.736C66.0265 98.736 66.3945 98.5707 66.6185 98.24C66.8532 97.8987 66.9705 97.344 66.9705 96.576C66.9705 95.6053 66.8478 94.912 66.6025 94.496C66.3678 94.0693 65.9892 93.856 65.4665 93.856ZM70.4641 96.928L70.3521 92.608L72.4641 92.512L72.3841 97.12H72.5121L74.9761 92.56H77.0881L76.9761 96.672L77.0881 100H74.9761L75.0721 97.072V95.312H74.9601L72.4161 100H70.3521L70.4641 96.928ZM76.3681 89.904C76.1548 90.3947 75.8081 90.7787 75.3281 91.056C74.8588 91.3333 74.3095 91.472 73.6801 91.472C73.0615 91.472 72.5281 91.3387 72.0801 91.072C71.6321 90.8053 71.2908 90.416 71.0561 89.904L72.1281 89.168H72.3521C72.4908 89.552 72.6615 89.824 72.8641 89.984C73.0775 90.144 73.3708 90.224 73.7441 90.224C74.1068 90.224 74.3841 90.1493 74.5761 90C74.7788 89.84 74.9495 89.5627 75.0881 89.168H75.2961L76.3681 89.904Z" fill="#415160"/>
</svg>
