<svg width="110" height="120" viewBox="0 0 110 120" fill="none" xmlns="http://www.w3.org/2000/svg">
<rect opacity="0.1" width="110" height="120" rx="8" fill="#415160"/>
<g clip-path="url(#clip0)">
<path fill-rule="evenodd" clip-rule="evenodd" d="M48.8613 30.9489C52.0837 29.6531 55.816 29.6844 59.0133 31.0431C61.9094 32.2558 64.3411 34.5322 65.7437 37.3404C67.7785 41.363 67.6216 46.4696 65.1805 50.2835C64.9137 48.8354 64.4337 47.3576 63.3496 46.3064C62.4852 45.442 61.3462 44.8803 60.157 44.6293C59.9028 44.5854 59.6722 44.4756 59.4526 44.3454C60.1893 44.2453 60.93 44.2608 61.6707 44.2764C61.9867 44.283 62.3027 44.2897 62.6185 44.2873C62.7832 42.2556 62.3157 40.1534 61.1611 38.459C59.7193 36.2815 57.2734 34.7801 54.6613 34.5636C51.9127 34.2718 49.0636 35.4013 47.2469 37.4785C45.8726 38.994 45.0976 41.0006 45.0019 43.0354C44.9423 45.3886 45.8318 47.7686 47.4979 49.4441C49.2127 51.2546 51.7354 52.2649 54.2267 52.1378C54.2069 51.9381 54.1825 51.7379 54.1581 51.5373L54.1581 51.5372C54.0759 50.8635 53.9933 50.1862 54.084 49.5116C54.1099 49.466 54.1543 49.3902 54.1928 49.3246L54.244 49.237C55.1963 50.9016 56.4576 52.4595 58.1834 53.3631C59.1733 53.9416 60.275 54.1991 61.3779 54.4568L61.3779 54.4568L61.3779 54.4568C62.0667 54.6178 62.7559 54.7788 63.4186 55.0183C65.819 55.8058 67.8648 57.4594 69.3787 59.4534C69.6721 59.6872 69.3301 60.1845 69.0288 59.9288C67.2184 58.3615 65.1334 56.9981 62.7534 56.5118C60.8531 56.1117 58.9384 56.2882 57.023 56.4648C55.2428 56.6289 53.4621 56.793 51.6915 56.4945C48.4204 55.98 45.3674 54.1852 43.3373 51.5699C41.4422 49.1759 40.402 46.104 40.5181 43.0479C40.5071 37.8158 44.0025 32.8378 48.8613 30.9489ZM63.05 48.9107C63.2257 48.8699 63.4029 48.8338 63.5818 48.804C64.1513 49.3186 64.4337 50.1219 64.2454 50.8765C64.007 51.1322 63.6775 50.9063 63.5222 50.682C63.1268 50.205 62.755 49.5257 63.05 48.9107ZM62.1369 52.7105C62.2844 51.7598 61.172 50.8373 60.2684 51.1071C59.531 51.4052 59.7224 52.4548 60.2072 52.9034C60.6967 53.4384 61.8843 53.5153 62.1369 52.7105Z" fill="#FD8C25"/>
<path d="M51.8229 81.76C51.5349 82.3253 51.1989 82.7893 50.8149 83.152L50.6389 83.216C48.6549 82.48 46.9002 81.4613 45.3749 80.16H45.0389C43.5882 80.16 42.4682 79.712 41.6789 78.816C40.8895 77.9093 40.4949 76.6293 40.4949 74.976C40.4949 73.2373 40.9162 71.8987 41.7589 70.96C42.6122 70.0213 43.8175 69.552 45.3749 69.552C46.8255 69.552 47.9402 69.9947 48.7189 70.88C49.5082 71.7547 49.9029 73.0133 49.9029 74.656C49.9029 75.8933 49.6789 76.944 49.2309 77.808C48.7829 78.672 48.1429 79.3013 47.3109 79.696C48.7082 80.5493 50.1855 81.1627 51.7429 81.536L51.8229 81.76ZM42.7509 74.736C42.7509 76.08 42.9429 77.04 43.3269 77.616C43.7109 78.192 44.3402 78.48 45.2149 78.48C46.0469 78.48 46.6549 78.208 47.0389 77.664C47.4335 77.12 47.6309 76.24 47.6309 75.024C47.6309 73.6907 47.4389 72.7413 47.0549 72.176C46.6709 71.6 46.0415 71.312 45.1669 71.312C44.3135 71.312 43.6949 71.5787 43.3109 72.112C42.9375 72.6453 42.7509 73.52 42.7509 74.736ZM51.5575 76.928L51.4775 72.704L53.5735 72.528L53.4775 76.72L53.5735 80H51.4455L51.5575 76.928ZM52.5655 68.912C52.8962 68.912 53.1522 69.008 53.3335 69.2C53.5255 69.392 53.6215 69.6587 53.6215 70C53.6215 70.3627 53.5202 70.6507 53.3175 70.864C53.1148 71.0773 52.8375 71.184 52.4855 71.184C52.1335 71.184 51.8615 71.088 51.6695 70.896C51.4882 70.704 51.3975 70.432 51.3975 70.08C51.3975 69.728 51.4988 69.4453 51.7015 69.232C51.9148 69.0187 52.2028 68.912 52.5655 68.912ZM56.9294 73.68L57.8414 77.856H57.9694L59.0894 73.792L59.3454 72.56H61.4094L61.5694 73.68L62.5134 77.84H62.6414L63.7294 73.792L63.9854 72.56H65.7774L63.4574 80H61.4574L60.3214 75.216H60.1774L58.8494 80H56.7534L54.8174 72.608L56.7534 72.512L56.9294 73.68ZM66.9013 76.928L66.8213 72.704L68.9173 72.528L68.8213 76.72L68.9173 80H66.7893L66.9013 76.928ZM67.9093 68.912C68.2399 68.912 68.4959 69.008 68.6773 69.2C68.8693 69.392 68.9653 69.6587 68.9653 70C68.9653 70.3627 68.8639 70.6507 68.6613 70.864C68.4586 71.0773 68.1813 71.184 67.8293 71.184C67.4773 71.184 67.2053 71.088 67.0133 70.896C66.8319 70.704 66.7413 70.432 66.7413 70.08C66.7413 69.728 66.8426 69.4453 67.0453 69.232C67.2586 69.0187 67.5466 68.912 67.9093 68.912Z" fill="#415160"/>
</g>
<defs>
<clipPath id="clip0">
<rect width="90" height="55" fill="white" transform="translate(10 30)"/>
</clipPath>
</defs>
</svg>
