<svg width="110" height="120" viewBox="0 0 110 120" fill="none" xmlns="http://www.w3.org/2000/svg">
<rect opacity="0.1" width="110" height="120" rx="8" fill="#415160"/>
<g clip-path="url(#clip0)">
<path d="M38.7538 76.928L38.8658 80H36.6898L36.7698 76.736V76.528H35.2498C34.7378 77.552 34.1084 78.704 33.3618 79.984L33.1378 80.16C32.3484 80.1173 31.6391 79.9733 31.0098 79.728L30.9778 79.488C31.8311 78.432 32.6951 77.2747 33.5698 76.016C32.9084 75.696 32.4071 75.2853 32.0658 74.784C31.7351 74.2827 31.5698 73.7067 31.5698 73.056C31.5698 72.3947 31.7298 71.808 32.0498 71.296C32.3804 70.784 32.8338 70.384 33.4098 70.096C33.9858 69.808 34.6418 69.664 35.3778 69.664L38.8658 69.696L38.7538 76.928ZM36.7378 74.832L36.6898 71.344L35.5538 71.28C34.9991 71.3013 34.5724 71.456 34.2738 71.744C33.9858 72.032 33.8418 72.4587 33.8418 73.024C33.8418 73.5253 33.9591 73.9307 34.1938 74.24C34.4284 74.5387 34.7911 74.7627 35.2818 74.912L36.7378 74.832ZM47.821 76.72L47.901 80H45.789L45.885 77.088L44.493 77.072L43.197 77.104L43.277 80H41.149L41.261 76.928L41.181 72.56H43.277L43.213 75.504L44.589 75.52H45.869L45.821 72.56H47.901L47.821 76.72ZM57.2698 78.48V81.84L55.9098 81.952L55.6538 80H50.8218L50.5818 81.84L49.2218 81.952V78.48H49.7818C50.1018 78.288 50.3524 78.0427 50.5338 77.744C50.7151 77.4347 50.8591 77.0027 50.9658 76.448C51.0831 75.8933 51.2004 75.088 51.3178 74.032L51.4778 72.576H56.3738L56.2778 76.72L56.3258 78.48H57.2698ZM54.3898 76.928L54.3418 73.952H52.9658L52.9178 74.368C52.7898 75.552 52.6351 76.4533 52.4538 77.072C52.2724 77.6907 52.0218 78.16 51.7018 78.48H54.3418L54.3898 76.928ZM64.422 76.544L60.102 76.576C60.198 77.9093 60.8753 78.576 62.134 78.576C62.7953 78.576 63.5313 78.3893 64.342 78.016L64.518 78.128L64.198 79.712C63.3873 80.0107 62.6247 80.16 61.91 80.16C60.7367 80.16 59.814 79.8187 59.142 79.136C58.4807 78.4533 58.15 77.5093 58.15 76.304C58.15 75.1093 58.4753 74.1653 59.126 73.472C59.7767 72.768 60.6567 72.416 61.766 72.416C62.7153 72.416 63.446 72.6773 63.958 73.2C64.4807 73.712 64.742 74.432 64.742 75.36C64.742 75.6053 64.7153 75.9147 64.662 76.288L64.422 76.544ZM62.886 75.12C62.886 74.6933 62.79 74.3733 62.598 74.16C62.406 73.936 62.1233 73.824 61.75 73.824C61.334 73.824 60.9873 73.9627 60.71 74.24C60.4327 74.5067 60.246 74.896 60.15 75.408L62.854 75.344L62.886 75.12ZM66.3853 76.928L66.3213 72.704L68.4173 72.528L68.3373 76.72L68.4013 80H66.2893L66.3853 76.928ZM70.4653 75.92C71.0626 76.8587 71.9319 78.1013 73.0733 79.648V79.872C72.6999 79.9573 72.2999 80.0213 71.8733 80.064C71.4573 80.1173 71.2013 80.1493 71.1053 80.16L70.8813 80.064C69.9213 78.6987 69.1053 77.3813 68.4333 76.112V75.968L70.3213 73.328L70.7053 72.56H72.9133L70.4653 75.92ZM76.9688 72.416C77.3208 72.416 77.6674 72.4533 78.0088 72.528C78.3608 72.592 78.6701 72.688 78.9368 72.816L78.5848 74.512L78.4088 74.592C77.8648 74.2933 77.3794 74.144 76.9528 74.144C76.4621 74.144 76.0834 74.32 75.8168 74.672C75.5501 75.024 75.4168 75.5253 75.4168 76.176C75.4168 76.9227 75.5608 77.4933 75.8488 77.888C76.1368 78.2827 76.5474 78.48 77.0807 78.48C77.5608 78.48 78.0941 78.3467 78.6808 78.08L78.8408 78.208L78.6328 79.856C77.9928 80.0587 77.3368 80.16 76.6648 80.16C75.6408 80.16 74.8408 79.8293 74.2648 79.168C73.6888 78.496 73.4008 77.5627 73.4008 76.368C73.4008 75.1307 73.7154 74.1653 74.3448 73.472C74.9741 72.768 75.8488 72.416 76.9688 72.416ZM40.9272 98.224V102.032L39.3272 102.176L39.0392 100H32.4952L32.2232 102.032L30.5912 102.176V98.224H31.4392C31.8979 98 32.2552 97.664 32.5112 97.216C32.7672 96.7573 32.9752 96.1067 33.1352 95.264C33.3059 94.4107 33.4659 93.2 33.6152 91.632L33.8232 89.696H39.6152L39.5032 96.736L39.5352 98.224H40.9272ZM37.4712 98.224L37.5192 96.928L37.4392 91.344H35.5512L35.4872 92.016C35.3059 93.8293 35.0819 95.2053 34.8152 96.144C34.5592 97.072 34.2019 97.7653 33.7432 98.224H37.4712ZM48.0704 96.544L43.7504 96.576C43.8464 97.9093 44.5238 98.576 45.7824 98.576C46.4438 98.576 47.1798 98.3893 47.9904 98.016L48.1664 98.128L47.8464 99.712C47.0358 100.011 46.2731 100.16 45.5584 100.16C44.3851 100.16 43.4624 99.8187 42.7904 99.136C42.1291 98.4533 41.7984 97.5093 41.7984 96.304C41.7984 95.1093 42.1238 94.1653 42.7744 93.472C43.4251 92.768 44.3051 92.416 45.4144 92.416C46.3638 92.416 47.0944 92.6773 47.6064 93.2C48.1291 93.712 48.3904 94.432 48.3904 95.36C48.3904 95.6053 48.3638 95.9147 48.3104 96.288L48.0704 96.544ZM46.5344 95.12C46.5344 94.6933 46.4384 94.3733 46.2464 94.16C46.0544 93.936 45.7718 93.824 45.3984 93.824C44.9824 93.824 44.6358 93.9627 44.3584 94.24C44.0811 94.5067 43.8944 94.896 43.7984 95.408L46.5024 95.344L46.5344 95.12ZM56.6257 96.72L56.7057 100H54.5937L54.6897 97.088L53.2977 97.072L52.0017 97.104L52.0817 100H49.9537L50.0657 96.928L49.9857 92.56H52.0817L52.0177 95.504L53.3937 95.52H54.6737L54.6257 92.56H56.7057L56.6257 96.72ZM62.3681 95.28C63.2107 95.28 63.8507 95.456 64.2881 95.808C64.7361 96.1493 64.9601 96.6507 64.9601 97.312C64.9601 98.1547 64.6454 98.816 64.0161 99.296C63.3867 99.7653 62.5227 100 61.4241 100H58.6881L58.8001 96.928L58.7201 92.56H60.8161L60.7521 95.28H62.3681ZM61.8721 98.72C62.2134 98.656 62.4747 98.5227 62.6561 98.32C62.8481 98.1067 62.9441 97.8507 62.9441 97.552C62.9441 97.232 62.8374 96.9813 62.6241 96.8C62.4214 96.608 62.1387 96.5173 61.7761 96.528L60.7201 96.544V96.72L60.7841 98.672L61.8721 98.72ZM70.8966 92.704L70.7686 94.08L69.0886 94.032H68.0966L68.0326 96.72L68.1286 100H66.0006L66.1126 96.928L66.0326 92.56H70.7846L70.8966 92.704ZM71.9876 96.928L71.8756 92.608L73.9876 92.512L73.9076 97.12H74.0356L76.4996 92.56H78.6116L78.4996 96.672L78.6116 100H76.4996L76.5956 97.072V95.312H76.4836L73.9396 100H71.8756L71.9876 96.928Z" fill="#415160"/>
<path fill-rule="evenodd" clip-rule="evenodd" d="M60.4722 30.0075C59.8862 29.9532 59.3358 30.2022 58.8323 30.4736C54.2177 33.029 49.6032 35.5862 44.9886 38.1434C44.935 38.1741 44.8811 38.2048 44.8271 38.2357C43.9137 38.7571 42.9569 39.3033 42.3771 40.2101C41.8669 41.0327 41.8436 42.0176 41.8212 42.9618C41.8184 43.0812 41.8155 43.1999 41.8118 43.3176C41.823 45.2215 41.8104 47.1254 41.7977 49.0292C41.7851 50.9331 41.7724 52.8369 41.7837 54.7408C41.7895 55.0319 41.7766 55.3286 41.7637 55.6266C41.7267 56.4801 41.6892 57.3446 42.0888 58.1217C42.5755 59.1157 43.5434 60.0555 44.7228 59.9974C48.7601 59.991 52.7974 59.9919 56.8344 59.9929C59.8618 59.9935 62.8891 59.9942 65.916 59.9918C66.94 59.9394 68.0427 59.2112 68.1831 58.1441C68.1918 55.9194 68.2042 53.6946 68.2166 51.4698C68.2335 48.436 68.2504 45.4023 68.2579 42.3685C68.1906 41.2977 67.2246 40.1389 66.0677 40.2981C65.4368 40.3018 64.8059 40.3205 64.175 40.3392C64.1758 41.7295 64.1756 43.1201 64.1754 44.5107C64.1751 46.3652 64.1748 48.2198 64.1769 50.0738C64.1919 51.5696 62.917 52.7826 61.5561 53.1833C60.1543 53.5836 58.7531 53.9848 57.352 54.3859C54.1406 55.3054 50.9297 56.2248 47.7143 57.1332C47.6215 57.1523 47.5271 57.175 47.4316 57.1979C47.0125 57.2984 46.5728 57.4039 46.1642 57.2362C45.743 57.0883 45.7093 56.4967 46.0051 56.2103C46.431 55.7369 47.0354 55.483 47.6109 55.2412L47.6525 55.2238L47.6593 55.2212C51.0454 53.9285 54.4315 52.6358 57.8158 51.3412C58.7293 50.9855 59.6485 50.6092 60.446 50.0289C61.221 49.486 61.8593 48.6117 61.8069 47.6271C61.8069 45.8366 61.8071 44.0464 61.8073 42.2563C61.8078 38.6766 61.8082 35.0974 61.8069 31.5182C61.8799 30.7582 61.2285 30.0356 60.4722 30.0075ZM54.2065 40.6369C54.5397 39.8375 55.2043 39.1411 56.0392 38.8772C56.6626 38.6469 57.4245 38.9727 57.6061 39.6316C57.8232 40.6575 57.1549 41.644 56.3574 42.2244C55.8277 42.5969 55.0283 42.844 54.4798 42.3798C53.9556 41.9679 53.9818 41.2004 54.2065 40.6369Z" fill="#FE8326"/>
</g>
<defs>
<clipPath id="clip0">
<rect width="90" height="75" fill="white" transform="translate(10 30)"/>
</clipPath>
</defs>
</svg>
