<svg width="110" height="120" viewBox="0 0 110 120" fill="none" xmlns="http://www.w3.org/2000/svg">
<rect opacity="0.1" width="110" height="120" rx="8" fill="#415160"/>
<path d="M66.8351 39.041C65.4346 45.258 61.1106 48.539 54.2961 48.539H52.0286L50.4526 58.547H48.5541L48.4546 59.1915C48.3901 59.619 48.7181 60 49.1461 60H53.9976C54.5716 60 55.0581 59.584 55.1521 59.0155L55.1991 58.7695L56.1131 52.9745L56.1716 52.658C56.2596 52.0895 56.7516 51.6735 57.3261 51.6735H58.0466C62.7456 51.6735 66.4256 49.7635 67.5036 44.244C67.9081 42.1465 67.7556 40.365 66.8356 39.041H66.8351Z" fill="#009ADE"/>
<path d="M63.9346 32.2615C62.5461 30.6795 60.0321 30 56.8211 30H47.4986C46.8421 30 46.2796 30.4745 46.1801 31.125L42.2951 55.746C42.2191 56.2325 42.5941 56.672 43.0861 56.672H48.8461L50.2936 47.502L50.2466 47.789C50.3461 47.1385 50.9031 46.664 51.5591 46.664H54.2956C59.6686 46.664 63.8756 44.4845 65.1061 38.168C65.1411 37.9805 65.1766 37.799 65.2001 37.623C65.5636 35.291 65.2001 33.697 63.9346 32.2615Z" fill="#002E86"/>
<path d="M38.4422 69.68C39.5195 69.68 40.3462 69.952 40.9222 70.496C41.5089 71.04 41.8022 71.8187 41.8022 72.832C41.8022 73.6107 41.6315 74.2933 41.2902 74.88C40.9489 75.456 40.4582 75.904 39.8182 76.224C39.1889 76.544 38.4475 76.704 37.5942 76.704H36.5702V76.736L36.6662 80H34.4902L34.6022 76.928L34.4902 69.696L38.4422 69.68ZM38.0742 75.12C39.0555 74.8427 39.5462 74.144 39.5462 73.024C39.5462 72.448 39.3969 72.0213 39.0982 71.744C38.8102 71.456 38.3622 71.3013 37.7542 71.28L36.6662 71.344L36.6022 75.056L38.0742 75.12ZM45.6149 72.416C46.4363 72.416 47.0763 72.6027 47.5349 72.976C48.0043 73.3387 48.2389 73.8507 48.2389 74.512C48.2389 74.704 48.2069 75.312 48.1429 76.336C48.1323 76.6347 48.1163 76.944 48.0949 77.264C48.0736 77.5733 48.0629 77.84 48.0629 78.064C48.0629 78.2453 48.0896 78.3733 48.1429 78.448C48.1963 78.512 48.2923 78.544 48.4309 78.544C48.5376 78.544 48.6763 78.5227 48.8469 78.48L49.0069 78.608L48.8149 79.728C48.4736 79.952 48.0843 80.0853 47.6469 80.128C47.3269 80.096 47.0603 79.984 46.8469 79.792C46.6336 79.5893 46.4896 79.312 46.4149 78.96H46.3029C45.7696 79.5253 45.2203 79.92 44.6549 80.144C43.8869 80.1333 43.2843 79.9307 42.8469 79.536C42.4096 79.1413 42.1909 78.6027 42.1909 77.92C42.1909 77.3867 42.3243 76.9707 42.5909 76.672C42.8683 76.3627 43.2843 76.1547 43.8389 76.048L46.2869 75.584V74.928C46.2869 74.2347 45.9456 73.888 45.2629 73.888C44.9323 73.888 44.5803 73.9627 44.2069 74.112C43.8443 74.2613 43.4336 74.496 42.9749 74.816L42.8149 74.72L42.5749 73.312C43.0336 73.024 43.5243 72.8053 44.0469 72.656C44.5696 72.496 45.0923 72.416 45.6149 72.416ZM44.5749 77.024C44.4043 77.0667 44.2763 77.1413 44.1909 77.248C44.1163 77.344 44.0789 77.4933 44.0789 77.696C44.0789 77.9733 44.1536 78.192 44.3029 78.352C44.4523 78.5013 44.6603 78.576 44.9269 78.576C45.3429 78.576 45.7803 78.3307 46.2389 77.84L46.2709 76.656L44.5749 77.024ZM51.5607 73.696L52.8887 77.856H53.0167L54.3447 73.872L54.6167 72.56H56.4407L54.0087 79.504C53.7527 80.2293 53.4647 80.8107 53.1447 81.248C52.8247 81.696 52.4247 82.0587 51.9447 82.336C51.4647 82.624 50.846 82.8693 50.0887 83.072L49.9287 83.056C49.566 82.704 49.2674 82.288 49.0327 81.808L49.0967 81.6C49.7687 81.4827 50.3234 81.3067 50.7607 81.072C51.198 80.848 51.614 80.4907 52.0087 80L49.2887 72.608L51.3047 72.512L51.5607 73.696ZM61.5828 69.68C62.6601 69.68 63.4868 69.952 64.0628 70.496C64.6495 71.04 64.9428 71.8187 64.9428 72.832C64.9428 73.6107 64.7721 74.2933 64.4308 74.88C64.0895 75.456 63.5988 75.904 62.9588 76.224C62.3295 76.544 61.5881 76.704 60.7348 76.704H59.7108V76.736L59.8068 80H57.6308L57.7428 76.928L57.6308 69.696L61.5828 69.68ZM61.2148 75.12C62.1961 74.8427 62.6868 74.144 62.6868 73.024C62.6868 72.448 62.5375 72.0213 62.2388 71.744C61.9508 71.456 61.5028 71.3013 60.8948 71.28L59.8068 71.344L59.7428 75.056L61.2148 75.12ZM68.7556 72.416C69.5769 72.416 70.2169 72.6027 70.6756 72.976C71.1449 73.3387 71.3796 73.8507 71.3796 74.512C71.3796 74.704 71.3476 75.312 71.2836 76.336C71.2729 76.6347 71.2569 76.944 71.2356 77.264C71.2142 77.5733 71.2036 77.84 71.2036 78.064C71.2036 78.2453 71.2302 78.3733 71.2836 78.448C71.3369 78.512 71.4329 78.544 71.5716 78.544C71.6782 78.544 71.8169 78.5227 71.9876 78.48L72.1476 78.608L71.9556 79.728C71.6142 79.952 71.2249 80.0853 70.7876 80.128C70.4676 80.096 70.2009 79.984 69.9876 79.792C69.7742 79.5893 69.6302 79.312 69.5556 78.96H69.4436C68.9102 79.5253 68.3609 79.92 67.7956 80.144C67.0276 80.1333 66.4249 79.9307 65.9876 79.536C65.5502 79.1413 65.3316 78.6027 65.3316 77.92C65.3316 77.3867 65.4649 76.9707 65.7316 76.672C66.0089 76.3627 66.4249 76.1547 66.9796 76.048L69.4276 75.584V74.928C69.4276 74.2347 69.0862 73.888 68.4036 73.888C68.0729 73.888 67.7209 73.9627 67.3476 74.112C66.9849 74.2613 66.5742 74.496 66.1156 74.816L65.9556 74.72L65.7156 73.312C66.1742 73.024 66.6649 72.8053 67.1876 72.656C67.7102 72.496 68.2329 72.416 68.7556 72.416ZM67.7156 77.024C67.5449 77.0667 67.4169 77.1413 67.3316 77.248C67.2569 77.344 67.2196 77.4933 67.2196 77.696C67.2196 77.9733 67.2942 78.192 67.4436 78.352C67.5929 78.5013 67.8009 78.576 68.0676 78.576C68.4836 78.576 68.9209 78.3307 69.3796 77.84L69.4116 76.656L67.7156 77.024ZM75.6107 76.72L75.7227 80H73.5947L73.7067 76.912L73.6107 68.928L75.7387 68.768L75.6107 76.72Z" fill="#415160"/>
</svg>
