<svg width="110" height="120" viewBox="0 0 110 120" fill="none" xmlns="http://www.w3.org/2000/svg">
<rect width="110" height="120" rx="8" fill="#479CF5"/>
<path fill-rule="evenodd" clip-rule="evenodd" d="M63.6719 34.5C65.4785 34.5 67.2982 34.7902 69.1094 35.5312C69.6606 35.7811 69.9995 36.3417 70 36.9375V51.7969C70 52.672 69.295 53.2964 68.5 53.2969C68.3289 53.2964 68.1658 53.272 67.9844 53.2031C66.5552 52.7611 65.1082 52.5773 63.6719 52.5938C60.7712 52.5855 57.8735 53.3162 54.9758 54.0468C52.0942 54.7734 49.2126 55.5 46.3281 55.5C44.521 55.5 42.7014 55.2098 40.8906 54.4688C40.3389 54.2189 40 53.6578 40 53.0625V38.2031C40 37.3275 40.705 36.7031 41.5 36.7031C41.6711 36.7031 41.8342 36.7275 42.0156 36.7969C43.4448 37.2384 44.8918 37.4222 46.3281 37.4062C49.2283 37.4142 52.1253 36.6837 55.0225 35.9532C57.9045 35.2265 60.7866 34.4998 63.6719 34.5ZM51.25 45C51.25 47.4848 52.9286 49.5 55 49.5C57.0705 49.5 58.75 47.4858 58.75 45C58.75 42.5147 57.0709 40.5 55 40.5C52.9291 40.5 51.25 42.5147 51.25 45Z" fill="white"/>
<path d="M29.6849 76.736L29.7489 80H27.5889L27.6849 76.928L27.6689 75.728L25.3489 75.712L23.2529 75.744L23.2369 76.736L23.3169 80H21.1569L21.2689 76.928L21.1569 69.696H23.3489L23.2849 73.952L25.4929 73.984L27.6529 73.952L27.5889 69.696H29.7969L29.6849 76.736ZM34.7466 72.416C35.568 72.416 36.208 72.6027 36.6666 72.976C37.136 73.3387 37.3706 73.8507 37.3706 74.512C37.3706 74.704 37.3386 75.312 37.2746 76.336C37.264 76.6347 37.248 76.944 37.2266 77.264C37.2053 77.5733 37.1946 77.84 37.1946 78.064C37.1946 78.2453 37.2213 78.3733 37.2746 78.448C37.328 78.512 37.424 78.544 37.5626 78.544C37.6693 78.544 37.808 78.5227 37.9786 78.48L38.1386 78.608L37.9466 79.728C37.6053 79.952 37.216 80.0853 36.7786 80.128C36.4586 80.096 36.192 79.984 35.9786 79.792C35.7653 79.5893 35.6213 79.312 35.5466 78.96H35.4346C34.9013 79.5253 34.352 79.92 33.7866 80.144C33.0186 80.1333 32.416 79.9307 31.9786 79.536C31.5413 79.1413 31.3226 78.6027 31.3226 77.92C31.3226 77.3867 31.456 76.9707 31.7226 76.672C32 76.3627 32.416 76.1547 32.9706 76.048L35.4186 75.584V74.928C35.4186 74.2347 35.0773 73.888 34.3946 73.888C34.064 73.888 33.712 73.9627 33.3386 74.112C32.976 74.2613 32.5653 74.496 32.1066 74.816L31.9466 74.72L31.7066 73.312C32.1653 73.024 32.656 72.8053 33.1786 72.656C33.7013 72.496 34.224 72.416 34.7466 72.416ZM33.7066 77.024C33.536 77.0667 33.408 77.1413 33.3226 77.248C33.248 77.344 33.2106 77.4933 33.2106 77.696C33.2106 77.9733 33.2853 78.192 33.4346 78.352C33.584 78.5013 33.792 78.576 34.0586 78.576C34.4746 78.576 34.912 78.3307 35.3706 77.84L35.4026 76.656L33.7066 77.024ZM45.4254 76.72L45.5054 80H43.3934L43.4894 76.928L43.4414 73.968H42.0974L42.0494 74.384C41.868 75.8987 41.6707 77.056 41.4574 77.856C41.2547 78.656 40.9987 79.232 40.6894 79.584C40.38 79.9253 39.964 80.1227 39.4414 80.176H38.9614L38.6574 78.544C39.0414 78.4267 39.34 78.224 39.5534 77.936C39.7667 77.648 39.9427 77.2107 40.0814 76.624C40.22 76.0267 40.348 75.1627 40.4654 74.032L40.6254 72.592L40.6094 72.56H45.5214L45.4254 76.72ZM47.5891 76.928L47.4771 72.608L49.5891 72.512L49.5091 77.12H49.6371L52.1011 72.56H54.2131L54.1011 76.672L54.2131 80H52.1011L52.1971 77.072V75.312H52.0851L49.5411 80H47.4771L47.5891 76.928ZM61.9224 76.72L62.0184 80H59.9064L59.9864 76.976H59.8584C59.389 77.36 58.8824 77.648 58.3384 77.84C57.4424 77.84 56.7917 77.6587 56.3864 77.296C55.981 76.9333 55.7677 76.3573 55.7464 75.568L55.6984 72.56H57.7944L57.7464 75.136C57.7357 75.8613 58.0504 76.224 58.6904 76.224C59.1277 76.224 59.5544 76.0533 59.9704 75.712L59.9224 72.56H62.0344L61.9224 76.72ZM70.6648 76.72L70.7448 80H68.6328L68.7288 77.088L67.3368 77.072L66.0408 77.104L66.1208 80H63.9928L64.1048 76.928L64.0247 72.56H66.1208L66.0568 75.504L67.4328 75.52H68.7128L68.6648 72.56H70.7448L70.6648 76.72ZM81.5431 76.72L81.6391 80H79.5111L79.6231 76.928L79.5431 72.704L81.6391 72.528L81.5431 76.72ZM76.3111 75.28C77.1005 75.28 77.7031 75.456 78.1191 75.808C78.5458 76.1493 78.7591 76.6507 78.7591 77.312C78.7591 78.1547 78.4605 78.816 77.8631 79.296C77.2658 79.7653 76.4391 80 75.3831 80H72.7271L72.8391 76.928L72.7591 72.56H74.8551L74.7911 75.28H76.3111ZM75.8311 78.72C76.1191 78.656 76.3431 78.5227 76.5031 78.32C76.6631 78.1067 76.7431 77.8507 76.7431 77.552C76.7431 77.232 76.6525 76.9813 76.4711 76.8C76.2898 76.608 76.0391 76.5173 75.7191 76.528L74.7591 76.544V76.72L74.8231 78.672L75.8311 78.72ZM89.3439 76.544L85.0239 76.576C85.1199 77.9093 85.7972 78.576 87.0559 78.576C87.7172 78.576 88.4532 78.3893 89.2639 78.016L89.4399 78.128L89.1199 79.712C88.3092 80.0107 87.5465 80.16 86.8319 80.16C85.6585 80.16 84.7359 79.8187 84.0639 79.136C83.4025 78.4533 83.0719 77.5093 83.0719 76.304C83.0719 75.1093 83.3972 74.1653 84.0479 73.472C84.6985 72.768 85.5785 72.416 86.6879 72.416C87.6372 72.416 88.3679 72.6773 88.8799 73.2C89.4025 73.712 89.6639 74.432 89.6639 75.36C89.6639 75.6053 89.6372 75.9147 89.5839 76.288L89.3439 76.544ZM87.8079 75.12C87.8079 74.6933 87.7119 74.3733 87.5199 74.16C87.3279 73.936 87.0452 73.824 86.6719 73.824C86.2559 73.824 85.9092 73.9627 85.6319 74.24C85.3545 74.5067 85.1679 74.896 85.0719 75.408L87.7759 75.344L87.8079 75.12ZM29.2603 96.928L29.1963 92.704L31.2923 92.528L31.2123 96.72L31.2763 100H29.1643L29.2603 96.928ZM33.3403 95.92C33.9376 96.8587 34.8069 98.1013 35.9483 99.648V99.872C35.5749 99.9573 35.1749 100.021 34.7483 100.064C34.3323 100.117 34.0763 100.149 33.9803 100.16L33.7563 100.064C32.7963 98.6987 31.9803 97.3813 31.3083 96.112V95.968L33.1963 93.328L33.5803 92.56H35.7883L33.3403 95.92ZM38.3978 93.696L39.7258 97.856H39.8538L41.1818 93.872L41.4538 92.56H43.2778L40.8458 99.504C40.5898 100.229 40.3018 100.811 39.9818 101.248C39.6618 101.696 39.2618 102.059 38.7818 102.336C38.3018 102.624 37.6831 102.869 36.9258 103.072L36.7658 103.056C36.4031 102.704 36.1044 102.288 35.8697 101.808L35.9337 101.6C36.6058 101.483 37.1604 101.307 37.5978 101.072C38.0351 100.848 38.4511 100.491 38.8458 100L36.1258 92.608L38.1418 92.512L38.3978 93.696ZM48.2881 92.464C49.2161 92.464 49.9308 92.7787 50.4321 93.408C50.9335 94.0373 51.1841 94.928 51.1841 96.08C51.1841 97.3813 50.8588 98.3893 50.2081 99.104C49.5681 99.808 48.6615 100.16 47.4881 100.16C47.1468 100.16 46.7895 100.128 46.4161 100.064L46.4641 102.96H44.3521L44.4641 96.928L44.3681 92.704L46.4001 92.528L46.3841 93.616H46.4961C46.7948 93.328 47.0828 93.0987 47.3601 92.928C47.6375 92.7467 47.9468 92.592 48.2881 92.464ZM47.5041 98.768C48.0588 98.768 48.4801 98.5707 48.7681 98.176C49.0561 97.7813 49.2001 97.2 49.2001 96.432C49.2001 95.6853 49.0775 95.1253 48.8321 94.752C48.5975 94.368 48.2455 94.176 47.7761 94.176C47.3175 94.176 46.8535 94.4053 46.3841 94.864L46.3681 96.72L46.4001 98.528C46.7841 98.688 47.1521 98.768 47.5041 98.768ZM56.2509 95.28C57.0935 95.28 57.7335 95.456 58.1709 95.808C58.6189 96.1493 58.8429 96.6507 58.8429 97.312C58.8429 98.1547 58.5282 98.816 57.8989 99.296C57.2695 99.7653 56.4055 100 55.3069 100H52.5709L52.6829 96.928L52.6029 92.56H54.6989L54.6349 95.28H56.2509ZM55.7549 98.72C56.0962 98.656 56.3575 98.5227 56.5389 98.32C56.7309 98.1067 56.8269 97.8507 56.8269 97.552C56.8269 97.232 56.7202 96.9813 56.5069 96.8C56.3042 96.608 56.0215 96.5173 55.6589 96.528L54.6029 96.544V96.72L54.6669 98.672L55.7549 98.72ZM65.6251 96.544L61.3051 96.576C61.4011 97.9093 62.0785 98.576 63.3371 98.576C63.9985 98.576 64.7345 98.3893 65.5451 98.016L65.7211 98.128L65.4011 99.712C64.5905 100.011 63.8278 100.16 63.1131 100.16C61.9398 100.16 61.0171 99.8187 60.3451 99.136C59.6838 98.4533 59.3531 97.5093 59.3531 96.304C59.3531 95.1093 59.6785 94.1653 60.3291 93.472C60.9798 92.768 61.8598 92.416 62.9691 92.416C63.9185 92.416 64.6491 92.6773 65.1611 93.2C65.6838 93.712 65.9451 94.432 65.9451 95.36C65.9451 95.6053 65.9185 95.9147 65.8651 96.288L65.6251 96.544ZM64.0891 95.12C64.0891 94.6933 63.9931 94.3733 63.8011 94.16C63.6091 93.936 63.3265 93.824 62.9531 93.824C62.5371 93.824 62.1905 93.9627 61.9131 94.24C61.6358 94.5067 61.4491 94.896 61.3531 95.408L64.0571 95.344L64.0891 95.12ZM71.4444 92.464C72.3724 92.464 73.087 92.7787 73.5884 93.408C74.0897 94.0373 74.3404 94.928 74.3404 96.08C74.3404 97.3813 74.015 98.3893 73.3644 99.104C72.7244 99.808 71.8177 100.16 70.6444 100.16C70.303 100.16 69.9457 100.128 69.5724 100.064L69.6204 102.96H67.5084L67.6204 96.928L67.5244 92.704L69.5564 92.528L69.5404 93.616H69.6524C69.951 93.328 70.239 93.0987 70.5164 92.928C70.7937 92.7467 71.103 92.592 71.4444 92.464ZM70.6604 98.768C71.215 98.768 71.6364 98.5707 71.9244 98.176C72.2124 97.7813 72.3564 97.2 72.3564 96.432C72.3564 95.6853 72.2337 95.1253 71.9884 94.752C71.7537 94.368 71.4017 94.176 70.9324 94.176C70.4737 94.176 70.0097 94.4053 69.5404 94.864L69.5244 96.72L69.5564 98.528C69.9404 98.688 70.3084 98.768 70.6604 98.768ZM76.9134 93.696L78.2414 97.856H78.3694L79.6974 93.872L79.9694 92.56H81.7934L79.3614 99.504C79.1054 100.229 78.8174 100.811 78.4974 101.248C78.1774 101.696 77.7774 102.059 77.2974 102.336C76.8174 102.624 76.1987 102.869 75.4414 103.072L75.2814 103.056C74.9187 102.704 74.62 102.288 74.3854 101.808L74.4494 101.6C75.1214 101.483 75.676 101.307 76.1134 101.072C76.5507 100.848 76.9667 100.491 77.3614 100L74.6414 92.608L76.6574 92.512L76.9134 93.696Z" fill="white"/>
</svg>
