<svg width="30" height="30" viewBox="0 0 30 30" fill="none" xmlns="http://www.w3.org/2000/svg">
<rect width="30" height="30" fill="#D8D8D8" fill-opacity="0.01"/>
<path fill-rule="evenodd" clip-rule="evenodd" d="M20.9113 22.3988C23.0266 21.0538 24.4685 18.7447 24.6199 16.0689V7.51791C21.0071 7.51791 17.6722 6.33145 15 4.31128C12.3278 6.32077 8.99293 7.51791 5.38013 7.51791V16.0689L5.3812 16.0899C5.53155 18.7447 6.97346 21.0538 9.12119 22.418L15 25.6888L20.8788 22.418L20.9113 22.3988ZM18.1211 19.4038L15 17.2233V17.234L11.8682 19.3824L12.9691 15.7483L9.94423 13.4609L13.7494 13.3753L15 9.78392L16.2506 13.3753L20.0558 13.4609L17.0202 15.7589L18.1211 19.4038Z" fill="#F57A71"/>
</svg>
