<svg width="60" height="62" viewBox="0 0 60 62" fill="none" xmlns="http://www.w3.org/2000/svg">
<g clip-path="url(#clip0)">
<path fill-rule="evenodd" clip-rule="evenodd" d="M0 32C0 48.5685 13.4315 62 30 62C46.5685 62 60 48.5685 60 32C60 15.4315 46.5685 2 30 2L0 32Z" fill="#F57A71"/>
<g filter="url(#filter0_dd)">
<path fill-rule="evenodd" clip-rule="evenodd" d="M30 2C30 18.5685 16.5685 32 0 32L30 2Z" fill="#FF9890"/>
</g>
<path opacity="0.7" d="M17.541 31.072V32.384L13.733 32.976L13.557 32.8V31.472L17.365 30.896L17.541 31.072ZM21.2484 27.792C22.0804 27.792 22.7524 27.9947 23.2644 28.4C23.7764 28.8053 24.0324 29.3333 24.0324 29.984C24.0324 30.4213 23.9097 30.848 23.6644 31.264C23.419 31.6693 23.035 32.016 22.5124 32.304V32.384C23.675 32.7147 24.2564 33.424 24.2564 34.512C24.2564 35.0987 24.0857 35.6213 23.7444 36.08C23.4137 36.5387 22.9444 36.8907 22.3364 37.136C21.7284 37.392 21.0297 37.52 20.2404 37.52C19.675 37.52 19.099 37.4667 18.5124 37.36L18.4004 35.712L18.5444 35.568C19.1737 35.792 19.7657 35.904 20.3204 35.904C20.9177 35.904 21.3817 35.7867 21.7124 35.552C22.0537 35.3173 22.2244 34.9867 22.2244 34.56C22.2244 34.208 22.1017 33.936 21.8564 33.744C21.611 33.5413 21.2484 33.4347 20.7684 33.424H19.6484L19.5364 33.28L19.6004 31.824L20.3044 31.792C20.7097 31.7813 21.0724 31.6533 21.3924 31.408C21.7124 31.152 21.8724 30.832 21.8724 30.448C21.8724 30.16 21.7764 29.936 21.5844 29.776C21.3924 29.616 21.1257 29.536 20.7844 29.536C20.4857 29.536 20.1817 29.6 19.8724 29.728C19.5737 29.8453 19.2484 30.032 18.8964 30.288H18.6724L18.3524 28.736C19.2697 28.1067 20.235 27.792 21.2484 27.792ZM29.195 27.792C30.283 27.792 31.1203 28.144 31.707 28.848C32.3043 29.552 32.603 30.5493 32.603 31.84C32.603 33.2053 32.283 34.2667 31.643 35.024C31.003 35.7707 30.0963 36.144 28.923 36.144C27.835 36.144 26.9923 35.792 26.395 35.088C25.7977 34.384 25.499 33.3973 25.499 32.128C25.499 30.752 25.819 29.6853 26.459 28.928C27.1097 28.1707 28.0217 27.792 29.195 27.792ZM29.035 29.76C28.395 29.76 27.9203 29.9413 27.611 30.304C27.3017 30.656 27.147 31.216 27.147 31.984C27.147 32.7627 27.3017 33.3387 27.611 33.712C27.9203 34.0853 28.4003 34.272 29.051 34.272C29.691 34.272 30.1657 34.096 30.475 33.744C30.795 33.3813 30.955 32.8267 30.955 32.08C30.955 31.2907 30.795 30.7093 30.475 30.336C30.155 29.952 29.675 29.76 29.035 29.76ZM43.8748 25.552L44.0028 25.856L36.5468 37.472L35.6348 36.928L35.5388 36.704L43.0108 25.024L43.8748 25.552ZM36.3388 25.6C37.1068 25.6 37.6934 25.84 38.0988 26.32C38.5041 26.8 38.7068 27.4933 38.7068 28.4C38.7068 29.3707 38.4828 30.1173 38.0348 30.64C37.5974 31.152 36.9574 31.408 36.1148 31.408C35.3361 31.408 34.7388 31.168 34.3228 30.688C33.9174 30.208 33.7148 29.5147 33.7148 28.608C33.7148 27.6373 33.9388 26.896 34.3868 26.384C34.8454 25.8613 35.4961 25.6 36.3388 25.6ZM36.1948 26.992C35.8001 26.992 35.5121 27.1147 35.3307 27.36C35.1494 27.6053 35.0588 27.984 35.0588 28.496C35.0588 29.0507 35.1494 29.4613 35.3307 29.728C35.5228 29.984 35.8161 30.112 36.2108 30.112C36.6161 30.112 36.9094 29.9893 37.0908 29.744C37.2828 29.488 37.3788 29.104 37.3788 28.592C37.3788 28.0373 37.2828 27.632 37.0908 27.376C36.8988 27.12 36.6001 26.992 36.1948 26.992ZM44.0028 30.272C44.7708 30.272 45.3574 30.5173 45.7628 31.008C46.1681 31.488 46.3708 32.176 46.3708 33.072C46.3708 34.0533 46.1468 34.8053 45.6988 35.328C45.2614 35.84 44.6214 36.096 43.7788 36.096C43.0001 36.096 42.4028 35.856 41.9868 35.376C41.5814 34.896 41.3788 34.2027 41.3788 33.296C41.3788 32.3147 41.6028 31.568 42.0508 31.056C42.5094 30.5333 43.1601 30.272 44.0028 30.272ZM43.8588 31.68C43.4641 31.68 43.1761 31.8027 42.9948 32.048C42.8134 32.2827 42.7228 32.6613 42.7228 33.184C42.7228 33.728 42.8134 34.1333 42.9948 34.4C43.1868 34.6667 43.4801 34.8 43.8748 34.8C44.2801 34.8 44.5734 34.6773 44.7548 34.432C44.9468 34.176 45.0428 33.7867 45.0428 33.264C45.0428 32.72 44.9468 32.32 44.7548 32.064C44.5628 31.808 44.2641 31.68 43.8588 31.68Z" fill="white"/>
</g>
<defs>
<filter id="filter0_dd" x="-8" y="-8" width="56" height="56" filterUnits="userSpaceOnUse" color-interpolation-filters="sRGB">
<feFlood flood-opacity="0" result="BackgroundImageFix"/>
<feColorMatrix in="SourceAlpha" type="matrix" values="0 0 0 0 0 0 0 0 0 0 0 0 0 0 0 0 0 0 127 0"/>
<feOffset dx="5" dy="3"/>
<feGaussianBlur stdDeviation="6.5"/>
<feColorMatrix type="matrix" values="0 0 0 0 0.576455 0 0 0 0 0 0 0 0 0 0 0 0 0 0.44045 0"/>
<feBlend mode="normal" in2="BackgroundImageFix" result="effect1_dropShadow"/>
<feColorMatrix in="SourceAlpha" type="matrix" values="0 0 0 0 0 0 0 0 0 0 0 0 0 0 0 0 0 0 127 0"/>
<feOffset dx="2" dy="1"/>
<feGaussianBlur stdDeviation="2"/>
<feColorMatrix type="matrix" values="0 0 0 0 0.576455 0 0 0 0 0 0 0 0 0 0 0 0 0 0.140953 0"/>
<feBlend mode="normal" in2="effect1_dropShadow" result="effect2_dropShadow"/>
<feBlend mode="normal" in="SourceGraphic" in2="effect2_dropShadow" result="shape"/>
</filter>
<clipPath id="clip0">
<rect width="60" height="62" fill="white"/>
</clipPath>
</defs>
</svg>
